<svg xmlns="http://www.w3.org/2000/svg" width="40" height="40" viewBox="0 0 40 40"><path d="M20,.446A20.256,20.256,0,0,0,0,20.953,20.465,20.465,0,0,0,13.675,40.41c1,.193,1.367-.441,1.367-.986,0-.487-.017-1.777-.025-3.486C9.453,37.175,8.28,33.186,8.28,33.186a5.4,5.4,0,0,0-2.225-3c-1.812-1.271.14-1.246.14-1.246a4.206,4.206,0,0,1,3.063,2.112c1.783,3.136,4.682,2.23,5.825,1.706a4.415,4.415,0,0,1,1.267-2.743C11.908,29.5,7.24,27.74,7.24,19.882a8.024,8.024,0,0,1,2.058-5.5,7.463,7.463,0,0,1,.175-5.428s1.675-.55,5.5,2.1a18.406,18.406,0,0,1,10,0c3.8-2.652,5.475-2.1,5.475-2.1a7.67,7.67,0,0,1,.2,5.428,8.058,8.058,0,0,1,2.05,5.5c0,7.878-4.675,9.613-9.125,10.117a4.977,4.977,0,0,1,1.35,3.794c0,2.745-.025,4.949-.025,5.616,0,.538.35,1.179,1.375.974A20.394,20.394,0,0,0,40,20.953,20.26,20.26,0,0,0,20,.445" transform="translate(0 -0.445)" fill="#fff"/></svg>