<svg xmlns="http://www.w3.org/2000/svg" width="16" height="16" viewBox="0 0 16 16"><path d="M8,.445a8.1,8.1,0,0,0-8,8.2,8.186,8.186,0,0,0,5.47,7.783c.4.077.547-.176.547-.394,0-.195-.007-.711-.01-1.395-2.225.495-2.695-1.1-2.695-1.1a2.16,2.16,0,0,0-.89-1.2c-.725-.509.056-.5.056-.5a1.683,1.683,0,0,1,1.225.845,1.681,1.681,0,0,0,2.33.682,1.766,1.766,0,0,1,.507-1.1C4.763,12.069,2.9,11.363,2.9,8.22a3.21,3.21,0,0,1,.823-2.2,2.985,2.985,0,0,1,.07-2.171s.67-.22,2.2.841a7.362,7.362,0,0,1,4,0c1.52-1.061,2.19-.841,2.19-.841a3.068,3.068,0,0,1,.08,2.171,3.223,3.223,0,0,1,.82,2.2c0,3.151-1.87,3.845-3.65,4.047a1.991,1.991,0,0,1,.54,1.518c0,1.1-.01,1.98-.01,2.246,0,.215.14.472.55.39A8.158,8.158,0,0,0,16,8.649a8.1,8.1,0,0,0-8-8.2" transform="translate(0 -0.446)" fill="#341d82"/></svg>