<svg xmlns="http://www.w3.org/2000/svg" width="77.82" height="75.875" viewBox="0 0 77.82 75.875"><path d="M64.04,75.875H13.78A13.768,13.768,0,0,1,0,62.095V13.78A13.768,13.768,0,0,1,13.78,0H64.04A13.768,13.768,0,0,1,77.82,13.78V62.095A13.768,13.768,0,0,1,64.04,75.875Z" fill="#ff26be"/><path d="M163.764,173.588H115.97a11.79,11.79,0,0,1-11.77-11.77V115.97a11.79,11.79,0,0,1,11.77-11.77h47.763a11.768,11.768,0,0,1,11.77,11.77v45.818a11.751,11.751,0,0,1-11.738,11.8Z" transform="translate(-100.956 -100.956)" fill="#2e001f"/><path d="M482.933,609.852l9.08,17.444c.162.258.065.52-.2.52h-5.643a.636.636,0,0,1-.682-.42c-2.076-4.28-4.184-8.56-6.356-13.164h-.065c-1.946,4.346-4.087,8.918-6.16,13.2a.626.626,0,0,1-.585.358h-5.345c-.324,0-.358-.258-.193-.455l8.884-16.927-8.591-17.12a.262.262,0,0,1,.193-.454h5.578c.324,0,.454.065.582.358,2.042,4.28,4.118,8.691,6.064,13h.065c1.88-4.28,3.956-8.722,5.967-12.971.162-.258.258-.42.585-.42h5.22c.258,0,.358.2.2.454Zm10.671,5.286c0-7.555,5.027-13.457,13-13.457a14.3,14.3,0,0,1,1.687.065v-8.591a.323.323,0,0,1,.324-.324h5.124c.258,0,.324.1.324.258v29.768a23.168,23.168,0,0,0,.162,3.178c0,.2-.065.258-.258.358a19.3,19.3,0,0,1-8.3,1.88c-7.038.028-12.065-4.314-12.062-13.136Zm14.686-8.3a4.874,4.874,0,0,0-1.88-.324c-4.087,0-6.939,3.144-6.939,8.367,0,5.967,2.92,8.367,6.584,8.367a6.081,6.081,0,0,0,2.238-.358V606.839Z" transform="translate(-452.162 -574.347)" fill="#ffd9f2"/></svg>