<svg xmlns="http://www.w3.org/2000/svg" width="77.82" height="10.836" viewBox="0 0 77.82 10.836"><path d="M.5,1.988l4.444-.611V5.665H.5ZM4.944,6.214v4.24L.5,9.844V6.214H4.944Zm.491-4.9L11.348.5V5.665H5.435Zm5.913,4.9v5.119l-5.913-.812V6.214h5.913Z" transform="translate(-0.5 -0.497)" fill="#0dadea"/><g transform="translate(14.184 2.035)"><path d="M145.877,26.975H144.85V23q0-.488.061-1.194h-.017a4.175,4.175,0,0,1-.17.578l-1.863,4.588h-.714l-1.867-4.554a4.225,4.225,0,0,1-.165-.612H140.1q.035.368.035,1.2v3.963h-.958V20.837h1.458l1.641,4.087a5.963,5.963,0,0,1,.244.7h.022q.161-.484.261-.719l1.672-4.07h1.406v6.137Zm1.928-5.3a.612.612,0,0,1-.424-.158.517.517,0,0,1-.176-.4.531.531,0,0,1,.176-.407.6.6,0,0,1,.424-.163.624.624,0,0,1,.435.163.528.528,0,0,1,.179.407.521.521,0,0,1-.179.4A.618.618,0,0,1,147.806,21.672Zm.5,5.3H147.3V22.592h1.01v4.383Zm4.514-.2a2.524,2.524,0,0,1-1.267.3,2.166,2.166,0,0,1-1.6-.61,2.141,2.141,0,0,1-.609-1.581,2.257,2.257,0,0,1,2.407-2.4,2.59,2.59,0,0,1,1.075.21v.924a1.648,1.648,0,0,0-.992-.342,1.391,1.391,0,0,0-1.049.426,1.542,1.542,0,0,0-.409,1.115,1.47,1.47,0,0,0,.385,1.074,1.38,1.38,0,0,0,1.034.394,1.631,1.631,0,0,0,1.027-.381Zm3.59-3.236a.847.847,0,0,0-.527-.141.905.905,0,0,0-.749.4,1.757,1.757,0,0,0-.3,1.083v2.1h-1.01V22.592h1.01v.9h.017a1.522,1.522,0,0,1,.455-.721,1.037,1.037,0,0,1,.685-.259.868.868,0,0,1,.418.081v.942Zm2.7,3.539a2.231,2.231,0,0,1-1.648-.614,2.2,2.2,0,0,1-.616-1.628,2.286,2.286,0,0,1,.642-1.725,2.384,2.384,0,0,1,1.73-.621,2.158,2.158,0,0,1,1.628.6,2.307,2.307,0,0,1,.583,1.673,2.17,2.17,0,0,1-2.319,2.311Zm.048-3.8a1.161,1.161,0,0,0-.936.406,1.682,1.682,0,0,0-.344,1.121,1.586,1.586,0,0,0,.348,1.085,1.179,1.179,0,0,0,.932.4,1.118,1.118,0,0,0,.916-.389,1.707,1.707,0,0,0,.32-1.109,1.728,1.728,0,0,0-.32-1.117A1.114,1.114,0,0,0,159.156,23.281Zm3.025,3.557v-.92a2.037,2.037,0,0,0,1.249.424q.914,0,.914-.531a.414.414,0,0,0-.078-.255.732.732,0,0,0-.211-.186,1.721,1.721,0,0,0-.313-.146l-.4-.146a4.275,4.275,0,0,1-.494-.227,1.489,1.489,0,0,1-.366-.272,1.017,1.017,0,0,1-.22-.345,1.245,1.245,0,0,1-.074-.449,1.025,1.025,0,0,1,.152-.558,1.31,1.31,0,0,1,.409-.406,1.977,1.977,0,0,1,.583-.248,2.711,2.711,0,0,1,.674-.083,3.117,3.117,0,0,1,1.105.184v.869a1.886,1.886,0,0,0-1.079-.317,1.459,1.459,0,0,0-.346.038.9.9,0,0,0-.263.107.531.531,0,0,0-.17.165.388.388,0,0,0-.061.212.448.448,0,0,0,.061.24.55.55,0,0,0,.181.173,1.546,1.546,0,0,0,.287.137c.112.041.24.087.385.135a5.652,5.652,0,0,1,.516.236,1.742,1.742,0,0,1,.39.272,1.06,1.06,0,0,1,.248.351,1.175,1.175,0,0,1,.087.473,1.065,1.065,0,0,1-.157.582,1.294,1.294,0,0,1-.418.411,1.967,1.967,0,0,1-.6.242,3.169,3.169,0,0,1-.72.079A3.07,3.07,0,0,1,162.182,26.838Zm6.1.239a2.231,2.231,0,0,1-1.648-.614,2.2,2.2,0,0,1-.616-1.628,2.286,2.286,0,0,1,.642-1.725,2.383,2.383,0,0,1,1.73-.621,2.158,2.158,0,0,1,1.628.6,2.307,2.307,0,0,1,.583,1.673,2.17,2.17,0,0,1-2.32,2.311Zm.048-3.8a1.163,1.163,0,0,0-.936.406,1.682,1.682,0,0,0-.344,1.121,1.586,1.586,0,0,0,.348,1.085,1.179,1.179,0,0,0,.932.4,1.119,1.119,0,0,0,.916-.389,1.7,1.7,0,0,0,.32-1.109,1.729,1.729,0,0,0-.32-1.117A1.114,1.114,0,0,0,168.331,23.281Zm5.824-1.986a.931.931,0,0,0-.466-.116q-.736,0-.735.817v.595h1.036v.779h-1.032v3.6h-1.01v-3.6h-.762v-.779h.762v-.711a1.372,1.372,0,0,1,.461-1.093,1.7,1.7,0,0,1,1.154-.4,1.734,1.734,0,0,1,.592.081Zm2.912,5.632a1.776,1.776,0,0,1-.779.146q-1.3,0-1.3-1.224V23.372h-.744v-.779h.744V21.578L176,21.3v1.3h1.066v.779H176v2.191a.852.852,0,0,0,.144.556.6.6,0,0,0,.479.167.7.7,0,0,0,.444-.146Zm8.566.047H184.5l-.561-1.562H181.48l-.54,1.562h-1.132l2.337-6.137h1.166l2.32,6.137Zm-1.972-2.392-.866-2.448a2.821,2.821,0,0,1-.083-.385h-.017a2.458,2.458,0,0,1-.087.385l-.857,2.448h1.91Zm6.011-1.575L187.264,26.2h2.4v.775H185.85V26.6l2.459-3.236h-2.224v-.775h3.586v.415Zm4.74,3.967H193.4v-.694h-.017a1.457,1.457,0,0,1-1.367.8q-1.58,0-1.58-1.866V22.592h1.01v2.517q0,1.181.927,1.181a.944.944,0,0,0,.738-.325,1.233,1.233,0,0,0,.289-.852V22.592h1.01Zm3.9-3.437a.847.847,0,0,0-.527-.141.905.905,0,0,0-.749.4,1.758,1.758,0,0,0-.3,1.083v2.1H195.73V22.592h1.009v.9h.017a1.522,1.522,0,0,1,.455-.721,1.038,1.038,0,0,1,.686-.259.866.866,0,0,1,.418.081v.942Zm4.5,1.515h-3.038a1.251,1.251,0,0,0,.381.937,1.432,1.432,0,0,0,1,.329,2.228,2.228,0,0,0,1.31-.419v.8a3.032,3.032,0,0,1-1.61.377,2.011,2.011,0,0,1-1.543-.6,2.362,2.362,0,0,1-.559-1.68,2.311,2.311,0,0,1,.616-1.667,2.031,2.031,0,0,1,1.53-.644,1.771,1.771,0,0,1,1.414.578,2.372,2.372,0,0,1,.5,1.605v.381Zm-.975-.7a1.272,1.272,0,0,0-.257-.832.865.865,0,0,0-.7-.3.988.988,0,0,0-.738.312,1.417,1.417,0,0,0-.372.817h2.063Z" transform="translate(-139.175 -20.388)" fill="#00adef"/></g></svg>