<svg xmlns="http://www.w3.org/2000/svg" width="77.82" height="77.821" viewBox="0 0 77.82 77.821"><path d="M0,67.786A10.034,10.034,0,0,0,10.034,77.82H67.786A10.034,10.034,0,0,0,77.82,67.786V10.035A10.034,10.034,0,0,0,67.786,0H10.035A10.034,10.034,0,0,0,0,10.034V67.786Z" fill="#563d7c"/><path d="M82.436,69.571V58.551h9.7a15.089,15.089,0,0,1,2.673.231,6.671,6.671,0,0,1,2.277.825,4.4,4.4,0,0,1,1.584,1.65,5.479,5.479,0,0,1,.594,2.705,4.985,4.985,0,0,1-1.782,4.29,7.447,7.447,0,0,1-4.553,1.32ZM72.075,50.5V97.618H94.908a24.089,24.089,0,0,0,6.17-.792,16.5,16.5,0,0,0,5.345-2.442,12.027,12.027,0,0,0,3.728-4.256,14.4,14.4,0,0,0-.759-13.726,11.325,11.325,0,0,0-6.5-4.389,11.744,11.744,0,0,0,4.785-3.893,10.322,10.322,0,0,0,1.617-5.939,12.639,12.639,0,0,0-1.089-5.543,9.055,9.055,0,0,0-3.069-3.6,13.244,13.244,0,0,0-4.751-1.947,29.333,29.333,0,0,0-6.137-.594ZM82.436,89.567V76.632H93.72a8.73,8.73,0,0,1,5.412,1.551q2.046,1.551,2.046,5.18a6.476,6.476,0,0,1-.627,3.036,4.98,4.98,0,0,1-1.683,1.881,7.126,7.126,0,0,1-2.442.99,13.854,13.854,0,0,1-2.9.3Z" transform="translate(-50.165 -35.149)" fill="#fff"/></svg>