<svg xmlns="http://www.w3.org/2000/svg" width="77.82" height="17.215" viewBox="0 0 77.82 17.215"><path d="M6.434,4.239H11.3l-.753,2.883a1.823,1.823,0,0,1-.646.968,1.743,1.743,0,0,1-1.1.366H6.541a2.188,2.188,0,0,0-1.366.452,2.362,2.362,0,0,0-.829,1.227,2.286,2.286,0,0,0-.032,1.1,2.368,2.368,0,0,0,.42.914,2.168,2.168,0,0,0,.775.635,2.271,2.271,0,0,0,1.033.237H7.918a.775.775,0,0,1,.635.312.747.747,0,0,1,.14.7l-.861,3.185H6.326a6.081,6.081,0,0,1-2.851-.678,6.433,6.433,0,0,1-2.163-1.8,6.344,6.344,0,0,1-1.1-5.487L.3,8.93a6.359,6.359,0,0,1,2.27-3.389,6.447,6.447,0,0,1,1.8-.958,6.245,6.245,0,0,1,2.066-.344ZM8.887,17.215l4.239-15.88a1.82,1.82,0,0,1,.646-.968A1.742,1.742,0,0,1,14.869,0h4.5a6.081,6.081,0,0,1,2.851.678,6.4,6.4,0,0,1,3.346,4.347,6.013,6.013,0,0,1-.086,2.937l-.086.323a6.454,6.454,0,0,1-.861,1.9A6.288,6.288,0,0,1,19.28,13H15.385l.775-2.905a1.821,1.821,0,0,1,.646-.947,1.745,1.745,0,0,1,1.1-.366h1.248a2.264,2.264,0,0,0,2.195-1.7,2.112,2.112,0,0,0,.032-1.054,2.377,2.377,0,0,0-.42-.915,2.285,2.285,0,0,0-.775-.646,2.2,2.2,0,0,0-1.033-.247h-2.41L13.6,15.9a1.823,1.823,0,0,1-.646.947,1.712,1.712,0,0,1-1.076.366H8.887ZM35.72,8.737l.065-.237a.314.314,0,0,0-.054-.29.329.329,0,0,0-.269-.119H28.468A1.719,1.719,0,0,1,27.65,7.9a1.8,1.8,0,0,1-.6-.506,1.773,1.773,0,0,1-.323-.721,1.845,1.845,0,0,1,.021-.839l.43-1.635h9.468a3.4,3.4,0,0,1,1.614.387,3.719,3.719,0,0,1,1.216,1.011,3.6,3.6,0,0,1,.667,1.431,3.559,3.559,0,0,1-.032,1.668l-1.7,6.326a2.914,2.914,0,0,1-2.84,2.174l-6.994-.022a3.7,3.7,0,0,1-2.97-1.452,3.912,3.912,0,0,1-.689-1.506,3.553,3.553,0,0,1,.043-1.732l.086-.323a3.429,3.429,0,0,1,.506-1.119,3.89,3.89,0,0,1,.829-.882,3.747,3.747,0,0,1,1.054-.57,3.673,3.673,0,0,1,1.227-.2h5.875L34.106,11a1.821,1.821,0,0,1-.646.947,1.711,1.711,0,0,1-1.076.366H29.759a.456.456,0,0,0-.473.366.441.441,0,0,0,.086.42.478.478,0,0,0,.387.183H34a.663.663,0,0,0,.409-.129.553.553,0,0,0,.215-.344l.043-.172L35.72,8.737Zm12.524-4.5a6.127,6.127,0,0,1,2.873.678,6.447,6.447,0,0,1,2.163,1.8,6.346,6.346,0,0,1,1.172,2.561,6.147,6.147,0,0,1-.1,2.948l-1.076,4.046a1.181,1.181,0,0,1-.463.689,1.306,1.306,0,0,1-.786.258H49.707a.79.79,0,0,1-.775-1.011l1.291-4.885a2.111,2.111,0,0,0,.032-1.054,2.379,2.379,0,0,0-.42-.915,2.284,2.284,0,0,0-.775-.646,2.2,2.2,0,0,0-1.033-.247h-2.41l-2.087,7.811a1.179,1.179,0,0,1-.463.689,1.338,1.338,0,0,1-.807.258h-2.3a.774.774,0,0,1-.635-.312.747.747,0,0,1-.14-.7L42.369,4.239h5.875Zm12.674,4.1a1.1,1.1,0,0,0-.366.527l-.968,3.658a.648.648,0,0,0,.624.818h8.909L68.428,15.9a1.823,1.823,0,0,1-.646.947,1.713,1.713,0,0,1-1.076.366H58.594a3.47,3.47,0,0,1-1.614-.377,3.543,3.543,0,0,1-1.216-1.011,3.684,3.684,0,0,1-.667-1.442,3.3,3.3,0,0,1,.054-1.646l1.313-4.885a4.84,4.84,0,0,1,.667-1.463,4.829,4.829,0,0,1,2.442-1.883,4.73,4.73,0,0,1,1.582-.269H66.9a3.4,3.4,0,0,1,1.614.387A3.721,3.721,0,0,1,69.73,5.638a3.492,3.492,0,0,1,.656,1.442,3.6,3.6,0,0,1-.043,1.657L69.956,10.2a2.8,2.8,0,0,1-1.044,1.56,2.876,2.876,0,0,1-1.775.592h-6.5l.43-1.592a1.7,1.7,0,0,1,.624-.947,1.745,1.745,0,0,1,1.1-.366h2.625a.456.456,0,0,0,.473-.366l.086-.323a.5.5,0,0,0-.473-.624h-4a.913.913,0,0,0-.581.2Zm8.177,8.876L73.42.968a1.227,1.227,0,0,1,.463-.7A1.3,1.3,0,0,1,74.69,0h2.3a.8.8,0,0,1,.656.312.747.747,0,0,1,.14.7L74.56,13a5.337,5.337,0,0,1-.764,1.721,5.633,5.633,0,0,1-1.248,1.323,5.842,5.842,0,0,1-1.6.861,5.5,5.5,0,0,1-1.851.312Z" transform="translate(0)" fill="#ff6c2c"/></svg>