<svg xmlns="http://www.w3.org/2000/svg" width="77.82" height="109.843" viewBox="0 0 77.82 109.843"><path d="M237.442,393.167l-31.781-8.813L198.58,304.92H276.4l-7.089,79.422Z" transform="translate(-198.58 -283.324)" fill="#264de4"/><path d="M325.886,389.749l6.058-67.869h-31.8v74.993Z" transform="translate(-261.224 -293.785)" fill="#2965f1"/><path d="M238.144,366.988l.874,9.74h21.8v-9.74Zm-1.755-19.719.885,9.741h23.543V347.27H236.37Zm24.428,45.02h-.042l-10.852-2.931-.694-7.771h-9.8l1.364,15.3,19.956,5.552h.046Z" transform="translate(-221.889 -309.446)" fill="#ebebeb"/><path d="M246.38,248.56h11.8V253.5h-6.867v4.935h6.867v4.935h-11.8Zm14.178,0h11.8v4.292h-6.882v.858h6.867v9.871h-11.8v-4.506h6.867v-.858h-6.867V248.56Zm14.178,0h11.8v4.292h-6.9v.858H286.5v9.871H274.7v-4.506h6.867v-.858H274.7V248.56Z" transform="translate(-228.064 -248.56)"/><path d="M322.661,366.989l1.759-19.719H300v9.741h13.729l-.885,9.963H300v9.741h12l-1.15,12.645L300,392.3v10.135l19.971-5.537.146-1.648,2.3-25.65.238-2.617Z" transform="translate(-261.138 -309.446)" fill="#fff"/></svg>