<svg xmlns="http://www.w3.org/2000/svg" width="77.82" height="22.538" viewBox="0 0 77.82 22.538"><path d="M.506,17.575V8.914H11.32V8.407H.506V.506H12V0H0V18.081H12.1v-.506H.507ZM21.855,5.065l-4.482,5.9-4.381-5.9h-.658l4.736,6.28-5.192,6.736h.608l4.887-6.356,4.913,6.356h.633L17.7,11.345l4.761-6.28h-.608Zm2.583,17.474v-8.1h.051a5.2,5.2,0,0,0,1.8,2.849A5.293,5.293,0,0,0,29.7,18.36a4.948,4.948,0,0,0,4.115-2.026,6.9,6.9,0,0,0,1.064-2.178,9.147,9.147,0,0,0,.367-2.608,9.221,9.221,0,0,0-.38-2.71,6.486,6.486,0,0,0-1.1-2.153,5.063,5.063,0,0,0-1.747-1.418A5.162,5.162,0,0,0,29.7,4.761a5.62,5.62,0,0,0-1.836.291,4.915,4.915,0,0,0-1.507.823,5.574,5.574,0,0,0-1.14,1.253,5.773,5.773,0,0,0-.734,1.583h-.051V5.065h-.506V22.538h.506Zm5.267-4.66a4.854,4.854,0,0,1-3.824-1.633,6.876,6.876,0,0,1-1.443-4.7,8.052,8.052,0,0,1,.355-2.406,6.231,6.231,0,0,1,1.025-2,4.925,4.925,0,0,1,1.659-1.367A4.812,4.812,0,0,1,29.7,5.267a4.639,4.639,0,0,1,2.216.507,4.492,4.492,0,0,1,1.57,1.38,6.426,6.426,0,0,1,.937,2,8.814,8.814,0,0,1,.316,2.393,9.019,9.019,0,0,1-.291,2.267,6.479,6.479,0,0,1-.9,2.026A4.893,4.893,0,0,1,32,17.309a4.376,4.376,0,0,1-2.292.57Zm8.332.2V10.712a7.182,7.182,0,0,1,.3-2.077,5.085,5.085,0,0,1,.937-1.785,4.391,4.391,0,0,1,1.608-1.216A4.881,4.881,0,0,1,43.2,5.267V4.761a6.274,6.274,0,0,0-2.039.253,4.951,4.951,0,0,0-1.507.76A3.881,3.881,0,0,0,38.644,6.9a5.039,5.039,0,0,0-.557,1.38h-.051V5.065H37.53V18.081h.506Zm5.8-6.407H54.725a9.013,9.013,0,0,0-.266-2.583,6.424,6.424,0,0,0-1.013-2.2,5.157,5.157,0,0,0-1.8-1.545,5.535,5.535,0,0,0-2.621-.582,5.33,5.33,0,0,0-3.951,1.785,6.746,6.746,0,0,0-1.266,2.14,8.087,8.087,0,0,0-.481,2.887,10.587,10.587,0,0,0,.329,2.7,6.318,6.318,0,0,0,1.013,2.178,4.571,4.571,0,0,0,1.76,1.431,5.823,5.823,0,0,0,2.6.481,5.7,5.7,0,0,0,3.748-1.253,5.188,5.188,0,0,0,1.8-3.533h-.506A4.869,4.869,0,0,1,52.383,16.8a5.3,5.3,0,0,1-3.406,1.076,5.229,5.229,0,0,1-2.355-.481,4.267,4.267,0,0,1-1.57-1.317,5.744,5.744,0,0,1-.9-1.963,10.557,10.557,0,0,1-.317-2.444Zm10.383-.506H43.836a7.829,7.829,0,0,1,.506-2.456A6.089,6.089,0,0,1,45.469,6.85,4.71,4.71,0,0,1,47.09,5.673a4.9,4.9,0,0,1,1.988-.405,5.033,5.033,0,0,1,2.229.469,4.6,4.6,0,0,1,1.608,1.279A5.64,5.64,0,0,1,53.889,8.9a7.707,7.707,0,0,1,.329,2.267ZM65.235,8.914h.506a3.767,3.767,0,0,0-1.266-3.166,5.461,5.461,0,0,0-3.444-.988,6.041,6.041,0,0,0-2.051.3,4.1,4.1,0,0,0-1.367.785,2.825,2.825,0,0,0-.76,1.064,3.055,3.055,0,0,0-.228,1.114,3.28,3.28,0,0,0,.38,1.7,2.5,2.5,0,0,0,1.19.988,9.167,9.167,0,0,0,1.266.456q.709.2,1.646.43.836.2,1.646.405a5.946,5.946,0,0,1,1.431.544,3.093,3.093,0,0,1,1.013.874,2.289,2.289,0,0,1,.392,1.393,2.478,2.478,0,0,1-.392,1.418,3.164,3.164,0,0,1-1,.95,4.455,4.455,0,0,1-1.355.532,6.758,6.758,0,0,1-1.456.165,5.375,5.375,0,0,1-3.533-1.025,3.973,3.973,0,0,1-1.228-3.229h-.507a4.488,4.488,0,0,0,1.329,3.6,5.909,5.909,0,0,0,3.938,1.139,7.692,7.692,0,0,0,1.684-.19,4.68,4.68,0,0,0,1.519-.62,3.434,3.434,0,0,0,1.089-1.114,3.149,3.149,0,0,0,.418-1.671,2.813,2.813,0,0,0-.367-1.519,3.08,3.08,0,0,0-.962-.962,5.1,5.1,0,0,0-1.342-.6q-.751-.216-1.507-.418-.93-.244-1.861-.481a11.3,11.3,0,0,1-1.481-.481,2.513,2.513,0,0,1-1.051-.8,2.418,2.418,0,0,1-.392-1.481,3.491,3.491,0,0,1,.1-.633,2.271,2.271,0,0,1,.481-.924,3.24,3.24,0,0,1,1.165-.836,5.173,5.173,0,0,1,2.153-.367,6.737,6.737,0,0,1,1.709.2,3.554,3.554,0,0,1,1.329.646,2.938,2.938,0,0,1,.861,1.127,4.108,4.108,0,0,1,.3,1.671Zm11.725,0h.506A3.767,3.767,0,0,0,76.2,5.749a5.46,5.46,0,0,0-3.444-.988,6.04,6.04,0,0,0-2.051.3,4.1,4.1,0,0,0-1.367.785,2.824,2.824,0,0,0-.76,1.064,3.055,3.055,0,0,0-.228,1.114,3.28,3.28,0,0,0,.38,1.7,2.5,2.5,0,0,0,1.19.988,9.173,9.173,0,0,0,1.266.456q.709.2,1.646.43.836.2,1.646.405a5.948,5.948,0,0,1,1.431.544,3.092,3.092,0,0,1,1.013.874,2.288,2.288,0,0,1,.393,1.393,2.478,2.478,0,0,1-.393,1.418,3.164,3.164,0,0,1-1,.95,4.456,4.456,0,0,1-1.355.532,6.757,6.757,0,0,1-1.456.165,5.375,5.375,0,0,1-3.533-1.025,3.973,3.973,0,0,1-1.228-3.229h-.506a4.487,4.487,0,0,0,1.329,3.6A5.908,5.908,0,0,0,73.11,18.36a7.69,7.69,0,0,0,1.684-.19,4.682,4.682,0,0,0,1.519-.62A3.434,3.434,0,0,0,77.4,16.435a3.149,3.149,0,0,0,.418-1.671,2.812,2.812,0,0,0-.367-1.519,3.078,3.078,0,0,0-.962-.962,5.106,5.106,0,0,0-1.342-.6q-.751-.217-1.507-.418-.93-.244-1.861-.481a11.3,11.3,0,0,1-1.482-.481,2.512,2.512,0,0,1-1.051-.8,2.418,2.418,0,0,1-.393-1.481,3.481,3.481,0,0,1,.1-.633,2.272,2.272,0,0,1,.481-.924A3.241,3.241,0,0,1,70.6,5.635a5.174,5.174,0,0,1,2.153-.367,6.737,6.737,0,0,1,1.709.2,3.555,3.555,0,0,1,1.329.646,2.938,2.938,0,0,1,.861,1.127,4.107,4.107,0,0,1,.3,1.671Z" fill="#222"/></svg>