<svg xmlns="http://www.w3.org/2000/svg" width="77.82" height="115.435" viewBox="0 0 77.82 115.435"><path d="M77.875,353.365c0,2.609-17.42,4.725-38.91,4.725S.055,355.974.055,353.365s20.435-4.725,38.91-4.725c21.992,0,38.91,2.115,38.91,4.725" transform="translate(-0.055 -242.654)" fill="#1a4658"/><path d="M80.128,76.889c-1.2,0-2.5-.556-3.428-4.818s-2.316-8.616-2.316-8.616a3.979,3.979,0,0,0,2.316-.649,15.036,15.036,0,0,1-4.725-3.984,45.539,45.539,0,0,0-5.281-5.1v-6.3a13.324,13.324,0,0,1,2.733-7.6A3.29,3.29,0,0,0,66.694,41.5V32.513c0-8.894,4.493-12.877,4.493-12.877a3.874,3.874,0,0,0-2.316.556c.649-6.578,2.664-8.523,2.664-8.523-7.411-1.946-11.546,2.409-11.546,2.409a6.429,6.429,0,0,1,2.426-6.3,13.886,13.886,0,0,0-6.94.278c0-5.836,2.32-7.783,2.32-7.783-11.58,0-18.155,8.707-18.155,8.707A18.286,18.286,0,0,1,40.2,2.027,25.559,25.559,0,0,0,26.024,17.215c-.741-1.76-.834-5.756-.834-5.756s-4.633,7.76-5.466,13.132.741,20.8.741,20.8a3.6,3.6,0,0,0-2.316-1.111s1.667,1.853,1.667,6.022a2.02,2.02,0,0,0-1.76-.278A6.71,6.71,0,0,1,20,54.284a17.386,17.386,0,0,0-3.15,2.779,15.381,15.381,0,0,0-2.687.371s1.483.834,1.76,1.575a58.447,58.447,0,0,0-6.578,8.06s1.946-1.2,3.335-.834a22.362,22.362,0,0,0-4.076,9.82s1.482-.741,2.131-.37a22.392,22.392,0,0,0-1.946,7.967l-2.038,1.2,1.575,1.112a76.976,76.976,0,0,0-1.483,7.874,6.279,6.279,0,0,1,1.668-1.2A23.562,23.562,0,0,0,10.923,96.9a9.8,9.8,0,0,0,6.393,3.428l3.483-.136c-.432,1.864-1.284,3.444-3.08,3.527l-.2.319-.111,0c-.036.544-1.134.642-1.436,1.019a12.506,12.506,0,0,0-2.5,6.207c-.078.346-.436.715-.556,1.065a32.463,32.463,0,0,1,5.233-.668l.025,1.292a2.288,2.288,0,0,0,.64.386.135.135,0,0,1,.044-.005,2.435,2.435,0,0,1,.394.063c2.191-.2,3.717.173,6.257-.037a3.544,3.544,0,0,0,1.39-.374,3.006,3.006,0,0,0,.2-.865c.012-.085.012-.172.033-.275l.117-.018a.292.292,0,0,1,.091-.012.14.14,0,0,1,.032-.01l.12-.01a.126.126,0,0,1,.078-.007c.46-.041,1.2-.08,1.657-.1,1.494,0,3.46.17,3.46.17.122-1.675.243-4.273,2.953-11.847l.672-.417s8.323,2.933,16.046-.118c.611,1.5,2.588,6.56,2.9,9.747a2.321,2.321,0,0,1,.245,1.35c.008.425.044.85.055,1.274a19.655,19.655,0,0,1,2.546-.159c.459.025,1.2.064,1.657.1a.126.126,0,0,1,.078.007l.12.01a.157.157,0,0,1,.032.009.294.294,0,0,1,.091.013l.117.018c.02.1.02.19.033.274a3,3,0,0,0,.2.865c.04.023.08.042.12.062a24.148,24.148,0,0,1,4.176-.142,24.7,24.7,0,0,1,3.247.453c0,.01,0,.021,0,.031.109.012.214.019.321.026.578.1,1.157.2,1.741.263.011-.73.007-1.368-.008-1.928,1.16.056,2.84.287,3.544.389.28.067.507.108.745.159l.1.029,0-.008a7.293,7.293,0,0,1,.838.24c-.052-.627-.047-.614-.13-1.4a6.381,6.381,0,0,0-1.315-3.216s.888.384,1.159.537c-.876-1.187-1.3-2.882-4.052-4.052a3.82,3.82,0,0,1,.962-.3,2.055,2.055,0,0,0-1.333-.377c.165-.469.891-1.652,1.5-1.8a1.153,1.153,0,0,0-.986-.059,5.859,5.859,0,0,0-.663.4.153.153,0,0,1-.223-.091,20.187,20.187,0,0,1-.431-2.16c5.544-.2,6.322-3.045,6.322-3.045a1.758,1.758,0,0,1,.463,1.2,9.85,9.85,0,0,0,2.131-6.3,2.517,2.517,0,0,1,1.019.463c.278-4.818-1.2-13.063-1.2-13.063a1.033,1.033,0,0,0,1.2-.092,1.69,1.69,0,0,1-.926-1.3,1.254,1.254,0,0,0,1.39-1.019" transform="translate(-4.716 -0.271)" fill="#edf7fa"/><path d="M57.106,348.765a9.426,9.426,0,0,0-.547-4.034s1.447.1,1.69,3.92c0,0-1.013.118-1.143.114m-7.264-7.9.009-.072c.005.036,0,.063-.009.072m1.355,7.72-.013,0,.017-.044,0,.048" transform="translate(-34.695 -237.193)" fill="#cde9ee"/><path d="M39.641,8.978A18.287,18.287,0,0,1,40.2,2.027,25.559,25.559,0,0,0,26.024,17.215c-.741-1.76-.834-5.756-.834-5.756s-4.633,7.76-5.466,13.132.741,20.8.741,20.8a3.6,3.6,0,0,0-2.316-1.111s1.667,1.853,1.667,6.022a2.02,2.02,0,0,0-1.76-.278A6.71,6.71,0,0,1,20,54.284a17.386,17.386,0,0,0-3.15,2.779,15.38,15.38,0,0,0-2.687.371s1.483.834,1.76,1.575a58.448,58.448,0,0,0-6.578,8.06s1.946-1.2,3.335-.834a22.362,22.362,0,0,0-4.076,9.82s1.482-.741,2.131-.37a22.392,22.392,0,0,0-1.946,7.967l-2.038,1.2,1.575,1.112a76.977,76.977,0,0,0-1.483,7.874,6.279,6.279,0,0,1,1.668-1.2A23.562,23.562,0,0,0,10.923,96.9a9.8,9.8,0,0,0,6.393,3.428l.235-.032a18.678,18.678,0,0,1-.389,1.9.153.153,0,0,1-.223.091,5.825,5.825,0,0,0-.663-.4,1.156,1.156,0,0,0-.986.059c.61.152,1.336,1.335,1.5,1.8a2.053,2.053,0,0,0-1.333.377,3.833,3.833,0,0,1,.962.3c-2.751,1.169-3.177,2.866-4.052,4.052.271-.153,1.159-.537,1.159-.537a6.384,6.384,0,0,0-1.315,3.215c-.083.786-.078.773-.13,1.4a13.183,13.183,0,0,1,1.674-.42,28.106,28.106,0,0,1,4.4-.385l-.148,1.8h.046a6.789,6.789,0,0,1,1.3-.166c.006-.5.033-.992.073-1.487a10.377,10.377,0,0,1,.249-2.473c.005-.029.013-.059.019-.088a5.259,5.259,0,0,1,1.316-2.248,2.5,2.5,0,0,0,.333-.463,4.679,4.679,0,0,0,.652-1.2c.381-1.039.218-3.322-.548-5.551a26.487,26.487,0,0,0,1.891,2.528l-.023-2.837s1.482,1.481,2.809,2.6a13.238,13.238,0,0,0,1.986,1.572c.04.026.077-.244.122.163h0c.006,0,.011-.081.017-.077.751.421,1.524.756,2.248,1.225.078.05.157.074.233.127.335.231.924.487,1.454.766l.5,5.917c.451-6.219,4-12.174,4-12.174l-.13-.04c-1.1-.339-9.119-3.115-13.859-13.025-.312-.653,1.76.741,1.76.741-1.946-4.725-2.687-12.321-2.687-12.321a2.816,2.816,0,0,0,1.3.648,40.567,40.567,0,0,1-1.945-13.063c-.371-23.439,8.292-28.812,8.292-28.812a9.1,9.1,0,0,0-3.057-.51c1.714-4.122,7.411-9.866,7.411-9.866-1.528.093-7.5,1.714-7.5,1.714C31.212,12.223,36.215,8.8,36.215,8.8a15.966,15.966,0,0,0,.834,6.392C47.8,1.894,56.43,2.514,56.43,2.514A12.887,12.887,0,0,1,57.8.271c-11.581,0-18.157,8.707-18.157,8.707M70.018,111.769a17.564,17.564,0,0,0-.868-5.049s1.992,1.228,1.981,5.107c0,0-.982-.054-1.112-.058" transform="translate(-4.716 -0.271)" fill="#cde9ee"/><path d="M32.382,223.1c1.312-12.85,1.669-37.989,1.669-37.989-2.849,5.628-5.142,15.842-5.142,15.842l.556,2.223-1.25-.556c-2.01,6.976-.65,16.315-.2,18.945a8.278,8.278,0,0,0,4.367,1.534m-2.687-.278q.6,3.05,1.3,6.08a3.976,3.976,0,0,0,.739.026,51.677,51.677,0,0,0,.619-5.531,11.849,11.849,0,0,1-2.657-.575" transform="translate(-18.905 -128.879)" fill="#abd8d7"/><path d="M162.279,315.894a.136.136,0,0,1-.162-.063c-.144.028-.254.055-.329.074h0a4.673,4.673,0,0,0,2.087-2.862,11.525,11.525,0,0,1-3.269.86c4.418-3.829,5.152-10.94,5.152-10.94a27.3,27.3,0,0,1-6.362,5.358l0-.009s-1.329.743-2.559,1.323a.14.14,0,0,0-.148.069,7.636,7.636,0,0,1-1.566.589s1.023,1.889,1.451,2.908l-.084.068a34.48,34.48,0,0,1,2.019,6.888c.057.573.1,1.075.131,1.458.026.5.061.838.061.838a23.5,23.5,0,0,1,4.722-.008,6.939,6.939,0,0,0,.194,1.223,22.38,22.38,0,0,1,2.805-.188c-.012-3.285-.157-8.743-4.148-7.586" transform="translate(-107.949 -210.874)" fill="#cde9ee"/><path d="M30.63,289.717c-3.069-.519-5.855-4.046-5.855-4.046a8.986,8.986,0,0,0,5.024,2.7c.368-2.718-1.879-8.938-1.879-8.938a16.962,16.962,0,0,1,3.071,6.429l-.362,3.856" transform="translate(-17.254 -194.501)" fill="#83bac0"/><path d="M66.914,297.424s2.415,4.256,4.534,6.1a26.3,26.3,0,0,1,5.316,6.5,33.971,33.971,0,0,1,1.772-3.59,23.8,23.8,0,0,1-11.621-9m31.515,8.3c.336-.472.72-.911,1.087-1.36a23.8,23.8,0,0,0,1.792-2.25c-.871.652-1.84,1.216-2.831,1.813a18.554,18.554,0,0,1-4.881,2.5,34.012,34.012,0,0,1,1.772,3.59,23.537,23.537,0,0,1,2.749-3.878c.1-.141.214-.275.313-.415" transform="translate(-46.573 -207.02)" fill="#abd8d7"/><path d="M31,76.885c-.263.019-1.107.04-1.107.04-7.638.533-13.253-5.386-13.253-5.386a12.689,12.689,0,0,0,2.816,8.669C22.779,84.258,29.5,84.951,29.5,84.951a10.113,10.113,0,0,1-.255,3.058,12.055,12.055,0,0,0,2.466-6.3c.351-2.888-.55-4.838-.713-4.826" transform="translate(-11.578 -49.858)" fill="#545352"/><path d="M31.065,76.885c-.253.014-1.106.04-1.106.04-7.638.533-13.253-5.386-13.253-5.386a14.735,14.735,0,0,0,15.143,9.3,6.746,6.746,0,0,0-.784-3.955" transform="translate(-11.64 -49.858)" fill="#6e7979"/><path d="M187.442,76.885c.263.019,1.106.04,1.106.04,7.638.533,13.253-5.386,13.253-5.386a12.688,12.688,0,0,1-2.816,8.669c-3.319,4.049-10.045,4.741-10.045,4.741a10.112,10.112,0,0,0,.255,3.058,12.055,12.055,0,0,1-2.466-6.3c-.351-2.888.55-4.838.713-4.826" transform="translate(-129.88 -49.858)" fill="#545352"/><path d="M187.364,76.885c.253.014,1.106.04,1.106.04,7.638.533,13.253-5.386,13.253-5.386a14.735,14.735,0,0,1-15.143,9.3,6.745,6.745,0,0,1,.784-3.955" transform="translate(-129.802 -49.858)" fill="#6e7979"/><path d="M45.218,176.845s-5.491,19.733,0,32.379V176.845m54.67,31.214a10.874,10.874,0,0,1-5.529,2.2c-.126-2.7,2.828-8.608,2.828-8.608a6.42,6.42,0,0,0-1.657,1.4l-.019-1.982,2.131-1.76-1.713-1.39,2.177-8.755-2.084,1.39s-.648-12.46-.186-17.834c0,0-2.64-2.641-3.937-3.706,0,0,.245,3.836.524,9.966,1.183,4.917,3.021,15.093.735,24.043.026,1.814.046,3.656.057,5.516a58.619,58.619,0,0,1,1.51,6.737,2.322,2.322,0,0,0,.926.012l-.042-4.256a8.4,8.4,0,0,0,4.281-2.976M74.2,169.849c0,2.1,1.348,3.811,3.011,3.811s3.011-1.706,3.011-3.811-1.348-3.811-3.011-3.811-3.011,1.706-3.011,3.811" transform="translate(-29.78 -115.606)" fill="#cde9ee"/><path d="M146.373,166.638c0,2.072,1.327,3.752,2.965,3.752s2.965-1.68,2.965-3.752-1.327-3.752-2.965-3.752-2.965,1.68-2.965,3.752" transform="translate(-101.858 -113.413)" fill="#fff"/><path d="M151.3,168.86a1.162,1.162,0,0,0-.04.29.878.878,0,0,0,.769.956.837.837,0,0,0,.755-.784,2.011,2.011,0,0,1,.392,1.218,1.458,1.458,0,1,1-2.849,0,1.781,1.781,0,0,1,.973-1.679" transform="translate(-104.613 -117.569)" fill="#474746"/><path d="M98.563,169.849c0,2.1,1.348,3.811,3.011,3.811s3.011-1.706,3.011-3.811-1.348-3.811-3.011-3.811-3.011,1.706-3.011,3.811" transform="translate(-68.593 -115.606)" fill="#cde9ee"/><path d="M98.869,166.638c0,2.072,1.327,3.752,2.965,3.752s2.964-1.68,2.964-3.752-1.327-3.752-2.964-3.752-2.965,1.68-2.965,3.752" transform="translate(-68.806 -113.413)" fill="#fff"/><path d="M105.628,168.86a1.16,1.16,0,0,0-.04.29.878.878,0,0,0,.769.956.837.837,0,0,0,.755-.784,2.011,2.011,0,0,1,.392,1.218,1.458,1.458,0,1,1-2.849,0,1.78,1.78,0,0,1,.973-1.679" transform="translate(-72.832 -117.569)" fill="#474746"/><path d="M99.694,170.356c-.189.569-.831.72-2.658,1.073l-.125.024a25.41,25.41,0,0,1-6.746.043l-.218-.033c-1.626-.275-1.811-.486-2.333-1.328a14.286,14.286,0,0,1-.933-3.937l0-.026c-.065-.534-.1-.8.588-1.107A33.675,33.675,0,0,1,93.957,164a39.6,39.6,0,0,1,5.413.313c.2.03.35.057.442.081a.927.927,0,0,1,.664.881,40.825,40.825,0,0,1-.782,5.082Zm-17.848-4.184,0,.026a14.271,14.271,0,0,1-.933,3.937c-.523.843-.708,1.053-2.333,1.328-.069.012-.142.023-.218.033a25.4,25.4,0,0,1-6.746-.043l-.124-.024c-1.828-.353-2.469-.5-2.658-1.073a40.874,40.874,0,0,1-.782-5.082.927.927,0,0,1,.664-.881,4.435,4.435,0,0,1,.442-.081A39.6,39.6,0,0,1,74.567,164a33.7,33.7,0,0,1,6.691,1.066C81.944,165.371,81.911,165.638,81.847,166.172Zm20.2-3.382a34.224,34.224,0,0,0-6.5-.275,77.919,77.919,0,0,0-8.671,1c-.559.091-1,.162-1.334.207l-.366.049c-.411.057-.681.092-.91.1-.229-.011-.5-.047-.91-.1l-.366-.05c-.335-.044-.775-.116-1.334-.207a77.835,77.835,0,0,0-8.671-1,34.224,34.224,0,0,0-6.5.275,11.676,11.676,0,0,0-2.658.7l.234,1.558s1.295-.308,2.56-.477c.235,2.2.692,5.018.692,5.018l.007.088c.035.142.067.281.1.431.261,1.11.519,1.762,1.56,2.153a24.692,24.692,0,0,0,5.879.869,15.542,15.542,0,0,0,2.978-.161,9.453,9.453,0,0,0,3.474-1.036c.776-.574,1.192-2.018,1.466-2.973l.082-.281c.1-.326.182-.668.263-1a6.075,6.075,0,0,1,.342-1.139c.019-.029.106-.132.445-.182a2.709,2.709,0,0,1,.353-.025,2.775,2.775,0,0,1,.353.025c.339.05.426.153.445.183a6.069,6.069,0,0,1,.342,1.138c.082.332.166.674.263,1l.082.281c.275.955.691,2.4,1.467,2.973a9.456,9.456,0,0,0,3.474,1.036,15.541,15.541,0,0,0,2.977.161,24.692,24.692,0,0,0,5.88-.869c1.04-.391,1.3-1.044,1.56-2.153.035-.151.067-.289.1-.431l.007-.088s.457-2.822.692-5.018c1.265.169,2.56.477,2.56.477l.234-1.558a11.656,11.656,0,0,0-2.658-.7Z" transform="translate(-44.423 -113.123)" fill="#545352"/><path d="M98.217,136.53s-3.349-1.6-5.266,1.368c0,0-.2-2.949,2.507-3.279s2.759,1.91,2.759,1.91M96.961,132.2s-3.1-1.465-4.519,1.351c0,0-.462-2.46,1.754-3.054a2.222,2.222,0,0,1,2.765,1.7m13.253,6.142s2.6-1.24,4.09,1.063c0,0,.154-2.29-1.947-2.546s-2.143,1.483-2.143,1.483m1.849-4.1s2.632-.426,3.082,1.979a2.032,2.032,0,0,0-.652-2.656,1.726,1.726,0,0,0-2.43.677" transform="translate(-64.306 -90.807)" fill="#a0d1de"/><path d="M105.313,222.938a10.469,10.469,0,0,1,2.922-1.4,7.126,7.126,0,0,0,1.315,3.478s2.326-2.1,4.626-2.246a4.153,4.153,0,0,0,1.558,1.752l-.005.015a4.01,4.01,0,0,0,1.187.528,4.152,4.152,0,0,0,1.7-2.258s.127,3.08-1.807,4.759a9.755,9.755,0,0,1-2.537-1.871,4.805,4.805,0,0,1-.812-.966s-3.412,2.413-3.536,3.79a19.017,19.017,0,0,1-3.3-4.251,12.006,12.006,0,0,0-2.1.853,12.878,12.878,0,0,1-1.589-4.11,17,17,0,0,0,2.377,1.932" transform="translate(-71.636 -153.851)" fill="#b2dce5"/><path d="M131.124,205.349c-.136-.029,3.46.249,6.992.123a4.029,4.029,0,0,1,.459-1.044s-.059,1.134.259,1.366a11.046,11.046,0,0,1-3.55.69,13.964,13.964,0,0,0,2.593-.659,29.915,29.915,0,0,1-6.753-.477" transform="translate(-91.246 -142.317)" fill="#545352"/></svg>