<svg xmlns="http://www.w3.org/2000/svg" width="77.82" height="32.504" viewBox="0 0 77.82 32.504"><path d="M135.021,11.987c-1.706,0-2.977.838-2.977,2.854,0,1.519.837,2.574,2.885,2.574a2.621,2.621,0,0,0,2.914-2.637,2.542,2.542,0,0,0-2.822-2.791ZM131.61,26.224a2.748,2.748,0,0,0-.806,1.643c0,1.24,1.581,1.613,3.753,1.613,1.8,0,4.249-.126,4.249-1.8,0-.994-1.179-1.055-2.668-1.149l-4.527-.309Zm9.18-14.144a4.919,4.919,0,0,1,1.147,3.133c0,3.442-2.7,5.458-6.605,5.458a9.861,9.861,0,0,1-2.45-.279l-1.024,1.643,3.039.186c5.366.342,8.528.5,8.528,4.621,0,3.567-3.132,5.582-8.528,5.582-5.613,0-7.754-1.427-7.754-3.877,0-1.4.62-2.139,1.706-3.164a2.066,2.066,0,0,1-1.365-2.046,2.781,2.781,0,0,1,.9-1.893c.558-.588,1.178-1.178,1.922-1.861a4.954,4.954,0,0,1-2.668-4.653c0-3.566,2.357-6.015,7.1-6.015a10.627,10.627,0,0,1,2.854.31h6.048v2.635Zm8.31-5.636a2.547,2.547,0,0,1-2.792-2.793,2.808,2.808,0,0,1,5.614,0A2.556,2.556,0,0,1,149.1,6.444Zm-4,18.638V22.634l1.582-.216c.434-.062.5-.155.5-.621V12.677c0-.34-.093-.559-.4-.651l-1.674-.59.341-2.511h6.421V21.8c0,.5.03.559.5.622l1.582.216v2.449Zm21.1-1.2a12.4,12.4,0,0,1-5.056,1.24c-3.691,0-5.086-1.487-5.086-4.994V12c0-.186,0-.31-.249-.31h-2.171V8.931c2.73-.311,3.815-1.676,4.156-5.056h2.947V8.28c0,.216,0,.31.248.31h4.373v3.1h-4.621V19.1c0,1.83.435,2.543,2.109,2.543a7.381,7.381,0,0,0,2.512-.5l.838,2.73" transform="translate(-88.382 -0.923)" fill="#2f2707"/><path d="M31.867,15.8,17.686,1.62a2.091,2.091,0,0,0-2.958,0L11.784,4.565,15.519,8.3a2.484,2.484,0,0,1,3.146,3.167l3.6,3.6a2.487,2.487,0,1,1-1.49,1.4l-3.357-3.357v8.835a2.514,2.514,0,0,1,.658.471,2.489,2.489,0,1,1-2.705-.543V12.958a2.458,2.458,0,0,1-.815-.543,2.488,2.488,0,0,1-.536-2.721L10.337,6.011.614,15.734a2.092,2.092,0,0,0,0,2.959l14.181,14.18a2.092,2.092,0,0,0,2.958,0L31.867,18.759a2.093,2.093,0,0,0,0-2.959" transform="translate(-0.001 -0.981)" fill="#de4c36"/></svg>