<svg xmlns="http://www.w3.org/2000/svg" width="77.82" height="121.422" viewBox="0 0 77.82 121.422"><path d="M8.537,121.074V110.5a1.05,1.05,0,0,0-1.191-1.067,11.337,11.337,0,0,0-4.368.967v10.672H0v-19.63H2.978v6.476a14.21,14.21,0,0,1,4.79-.967c2.7,0,3.723,1.662,3.723,3.945v10.176H8.537Zm8.511-6.4c.1,3.549.794,4.244,2.977,4.244a15.357,15.357,0,0,0,5.138-1.142l.5,2.233a13.906,13.906,0,0,1-5.831,1.415c-4.964,0-5.734-2.729-5.734-7.073a23.591,23.591,0,0,1,.745-6.527,17.03,17.03,0,0,1,5.98-.868c4.071,0,5.312,2.259,5.312,6.2v1.514Zm3.771-5.236a19.954,19.954,0,0,0-3.474.247,15.789,15.789,0,0,0-.323,2.929h6.2c0-2.06-.372-3.176-2.408-3.176Zm10.894.967v10.672H28.735V109.062a17.224,17.224,0,0,1,6.9-1.911v2.482a12.66,12.66,0,0,0-3.921.768ZM43.5,121.422c-4.443,0-6.453-2.184-6.453-7.172,0-5.286,2.655-7.3,6.453-7.3,4.442,0,6.452,2.183,6.452,7.172C49.954,119.412,47.3,121.422,43.5,121.422Zm0-11.986c-2.284,0-3.549,1.315-3.549,4.814,0,3.822,1.067,4.666,3.549,4.666,2.283,0,3.549-1.291,3.549-4.79,0-3.822-1.067-4.69-3.549-4.69Zm20.82,11.639h-3.5a19.4,19.4,0,0,0-3.723-6.353H55.535v6.353H52.557v-19.63h2.978V112.71h1.39a18.065,18.065,0,0,0,3.5-5.41h3.35a23.292,23.292,0,0,1-4.243,6.006,42.078,42.078,0,0,1,4.79,7.768Zm5.582.347c-2.7,0-3.722-1.662-3.722-3.946V107.3h2.953v10.547a1.05,1.05,0,0,0,1.191,1.068,12.041,12.041,0,0,0,4.517-.968V107.3H77.82v11.962A15.79,15.79,0,0,1,69.9,121.422ZM68.588,96.441H9.2a9.2,9.2,0,0,1-9.2-9.2V9.2A9.2,9.2,0,0,1,9.2,0h59.39a9.2,9.2,0,0,1,9.2,9.2V87.243a9.2,9.2,0,0,1-9.2,9.2Z" fill="#6762a6"/><path d="M89.963,113.252v-38.3s2.491-9.165-30.685,3.749c-.061.164-.061-35.416-.061-35.416l10.84-.067v22.8s30.352-11.954,30.352,9.066v38.17H89.963ZM96.14,57.017h-11.5c4.139-5.06,7.885-13.73,7.885-13.73h11.889s-2.035,5.65-8.276,13.73ZM59.414,113.186V91.376L70.32,102.282Z" transform="translate(-41.216 -30.082)" fill="#fff"/></svg>