<svg xmlns="http://www.w3.org/2000/svg" width="77.82" height="109.843" viewBox="0 0 77.82 109.843"><g transform="translate(0)"><path d="M976.05,337.49l-7.09,79.416-31.869,8.84-31.78-8.84L898.23,337.49Z" transform="translate(-898.23 -315.903)" fill="#e44d26"/><path d="M981.86,426.456l25.751-7.137,6.048-67.869h-31.8Z" transform="translate(-942.952 -323.368)" fill="#f16529"/><path d="M940,382.132h13.78V372.39H929.36l.233,2.615,2.4,26.844h21.8v-9.742H940.9Zm2.215,24.588h-9.77l1.363,15.3,19.931,5.555h.047V417.406h-.042L942.9,414.476Z" transform="translate(-914.877 -334.566)" fill="#ebebeb"/><path d="M913.8,291.09h4.95v4.89h4.527v-4.89h4.95V305.9h-4.95v-4.959H918.75V305.9H913.8ZM934.736,296h-4.359V291.09h13.669V296h-4.359v9.9H934.74V296h0Zm11.482-4.913h5.164l3.178,5.206,3.173-5.206H962.9V305.9h-4.932v-7.341l-3.405,5.267h-.084l-3.41-5.267V305.9h-4.848Zm19.14,0h4.95V301h6.979V305.9H965.372V291.09Z" transform="translate(-906.556 -291.09)"/><path d="M981.79,401.844h11.994l-1.13,12.636L981.79,417.41v10.156l19.973-5.536.144-1.647,2.289-25.649.237-2.615H981.79v9.742Zm0-19.74v.023h23.532l.2-2.191.465-4.941.233-2.615H981.79V382.1Z" transform="translate(-942.915 -334.561)" fill="#fff"/></g></svg>