<svg xmlns="http://www.w3.org/2000/svg" width="77.82" height="77.814" viewBox="0 0 77.82 77.814"><path d="M585,276.09h77.82V353.9H585Z" transform="translate(-585 -276.09)" fill="#f7df1e"/><path d="M654.21,425.19l5.956-3.6c1.15,2.037,2.194,3.761,4.7,3.761,2.4,0,3.918-.94,3.918-4.6V395.886H676.1v24.966c0,7.573-4.436,11.021-10.917,11.021-5.849,0-9.244-3.031-10.968-6.686m25.856-.784,5.953-3.448c1.567,2.561,3.6,4.436,7.209,4.436,3.031,0,4.962-1.514,4.962-3.6,0-2.508-1.984-3.395-5.323-4.858l-1.827-.784c-5.275-2.244-8.777-5.065-8.777-11.021,0-5.485,4.178-9.664,10.707-9.664,4.648,0,7.984,1.62,10.394,5.849l-5.692,3.658c-1.254-2.247-2.611-3.134-4.7-3.134a3.183,3.183,0,0,0-3.5,3.134c0,2.194,1.357,3.081,4.492,4.436l1.827.784c6.21,2.661,9.717,5.379,9.717,11.491,0,6.582-5.172,10.187-12.124,10.187-6.8,0-11.178-3.253-13.307-7.469" transform="translate(-633.744 -360.162)"/></svg>