<svg xmlns="http://www.w3.org/2000/svg" width="77.82" height="17.685" viewBox="0 0 77.82 17.685"><path d="M444.28,8.646l3.267.018s-6.075,8.232-6.571,8.9a3.829,3.829,0,0,0-.53.742,16.577,16.577,0,0,0-.636,2.332l-2.99.015a12.305,12.305,0,0,0,.446-2.559,9.879,9.879,0,0,0-.636-2.332c-.225-.789-.53-2.332-.53-2.332h3.074l.424,1.7,4.681-6.483" transform="translate(-369.727 -7.339)" fill="#1a1918" fill-rule="evenodd"/><path d="M154.926,3.121c.6.364.973,2.369.973,2.369s-3.155.047-4.872.047h-1.484l-1.8,7.843h-2.756s1.715-8.523,2.12-10.068c.131-.5.9-.414,2.195-.414h2.07c1.337,0,2.9-.171,3.556.225M142.1,6.941a1.652,1.652,0,0,0-.291-1.086c-.322-.5-.62-.613-1.468-.639-2.394-.075-2.348,1.7-2.348,1.7Zm2.6-2.032c.351,1.266-.318,4.239-.318,4.239s-3.492-.058-5.405,0c-.595.018-1.307-.065-1.484.212-.249.388.091.985.379,1.237a2.4,2.4,0,0,0,1.21.353,40.06,40.06,0,0,0,4.8.051l-.563,2.493a33.693,33.693,0,0,1-6.889-.318,2.338,2.338,0,0,1-1.166-.636c-.078-.085-.146-.2-.221-.3a2.786,2.786,0,0,1-.309-.548c-.525-1.4.061-4.076.636-5.511.067-.166.15-.377.239-.556.11-.223.2-.476.291-.609.059-.092.133-.151.194-.238a3.561,3.561,0,0,1,.23-.291,4.368,4.368,0,0,1,.742-.636,7,7,0,0,1,4.769-1.06,3.64,3.64,0,0,1,2.544,1.166,3.558,3.558,0,0,1,.318.954ZM132.056,2.886l2.672-.016s-1.489,7.064-2.248,10.508h-3.074c-2.148,0-4.061.266-4.875-1.272-.79-1.493-.036-3.949.318-5.617.25-1.181.777-3.594.777-3.594l2.768-.025s-.782,3.757-1.108,5.633c-.117.672-.357,1.3-.106,1.8.238.473.572.507,1.59.53.322.008,1.378,0,1.378,0l1.908-7.949M119.55,7.974a10.15,10.15,0,0,0,.636-2.968,2.548,2.548,0,0,0-1.378-2.014,3.53,3.53,0,0,0-3.6.848,5.882,5.882,0,0,0-1.272,3.074,4.623,4.623,0,0,0,0,2.755c.638,1.34,2.627,1.047,4.769,1.06C119.02,9.877,119.283,8.92,119.55,7.974Zm3.71-3.921c.305,2.219-.866,4.669-1.672,6.8.823.074,1.543-.011,1.6.05a8.638,8.638,0,0,1-.762,2.549c-.653.017-2.816.035-3.718.035-2.943,0-5.7.192-7.1-1.272a4.616,4.616,0,0,1-1.06-2.332,9.889,9.889,0,0,1,.318-3.6,10.906,10.906,0,0,1,1.06-2.756A6.659,6.659,0,0,1,118.914.131a6.717,6.717,0,0,1,2.332.742c.043.025.2.146.23.167A4.614,4.614,0,0,1,123.259,4.052ZM110.237,2.9c-.178.811-.356,1.73-.544,2.531h-2.968c.23-.888.406-1.771.636-2.544.95,0,1.832.013,2.875.013M106.62,6.172h2.862c-.374,2.071-1.115,5.411-1.7,7.737-.364,1.455-.606,2.517-1.59,3.285-.088.069-.139.036-.212.106a4.049,4.049,0,0,1-1.484.424,21.333,21.333,0,0,1-2.535-.008c.243-.887.517-1.952.734-2.747,2.261.274,2.318-1.863,2.756-3.921.253-1.189,1.021-4.4,1.166-4.875" transform="translate(-86.561 -0.078)" fill="#1a1918" fill-rule="evenodd"/><g transform="translate(0 1.425)"><path d="M14.363,31.01l-.061.159a6,6,0,0,1-5.538,3.338,7.742,7.742,0,0,1-3.18-.636,8.213,8.213,0,0,1-3.815-3.6,5.993,5.993,0,0,1,.982-7.26c.035,0-.276.477-.241.477l-.063.2c-1.637,5.126,3.407,9.52,8.311,9.017a6.442,6.442,0,0,0,3.6-1.7" transform="translate(-0.981 -20.935)" fill="#21609b" fill-rule="evenodd"/><path d="M33.782,21.011a4.692,4.692,0,0,0,3.286-1.378c-.668,1.695-2.6,2.784-5.193,2.438a5.592,5.592,0,0,1-4.451-4.663,4.655,4.655,0,0,1,1.314-3.7,3.868,3.868,0,0,0-.466,1.365,5.6,5.6,0,0,0,5.511,5.935" transform="translate(-23.367 -13.056)" fill="#21609b" fill-rule="evenodd"/><path d="M56.506,13.093a3.866,3.866,0,0,1-1.784,1.375,3.4,3.4,0,0,1-3.816-1.546,4.772,4.772,0,0,1-.306-.689,2.911,2.911,0,0,1,.614-2.815,3.519,3.519,0,0,0-.14,1.855,4.119,4.119,0,0,0,.511,1.116,2.935,2.935,0,0,0,1.166,1.03,3.093,3.093,0,0,0,.586.281,3.26,3.26,0,0,0,3.169-.606" transform="translate(-42.93 -9.417)" fill="#21609b" fill-rule="evenodd"/></g></svg>