<svg xmlns="http://www.w3.org/2000/svg" width="77.82" height="22.173" viewBox="0 0 77.82 22.173"><path d="M396.317,56.159c-.07.014-.14.168-.14.253-.014.562-.028,2.05-.028,3.061a.1.1,0,0,0,.084.084c.211.014.716.028,1.151.028a3.006,3.006,0,0,0,1.152-.168,1.492,1.492,0,0,0,.744-1.4c0-1.362-.955-1.882-2.373-1.882A2.253,2.253,0,0,0,396.317,56.159Zm3.623,6.277c0-1.39-1.025-2.163-2.879-2.163-.084,0-.674-.014-.815.014-.042.014-.1.042-.1.084,0,1-.014,2.584.028,3.2a1.06,1.06,0,0,0,.463.758,3.214,3.214,0,0,0,1.222.168A1.917,1.917,0,0,0,399.94,62.436Zm-6.487-7.049c.14,0,.561.042,1.643.042,1.025,0,1.84-.028,2.837-.028,1.222,0,2.907.435,2.907,2.261a2.2,2.2,0,0,1-1.46,1.966c-.042.014-.042.042,0,.056a2.527,2.527,0,0,1,2.219,2.4,2.948,2.948,0,0,1-2.064,2.738,6.717,6.717,0,0,1-2.612.435c-.716,0-2.64-.084-3.707-.056-.112-.042.1-.548.2-.632a2.622,2.622,0,0,0,.716-.112c.379-.1.421-.211.477-.786.028-.492.028-2.233.028-3.469,0-1.7.014-2.851,0-3.412-.014-.435-.168-.576-.477-.66-.239-.042-.632-.1-.955-.14-.07-.07.168-.548.253-.6Zm-8.1,8.734a2.831,2.831,0,0,0,1.587.379,3.111,3.111,0,0,0,2.247-.8,4.268,4.268,0,0,0,1.264-3.37,4.023,4.023,0,0,0-1.84-3.637,4.967,4.967,0,0,0-2.64-.618,2.1,2.1,0,0,0-.786.1.413.413,0,0,0-.14.225c-.028.281-.028,2.443-.028,3.707,0,1.306,0,3.131.028,3.342a.871.871,0,0,0,.309.674Zm-3.188-8.734c.267,0,1.292.042,1.783.042.885,0,1.517-.042,3.188-.042a5.2,5.2,0,0,1,3.426,1.1,4.553,4.553,0,0,1,1.559,3.595,4.706,4.706,0,0,1-1.938,4.044,6.494,6.494,0,0,1-4.03,1.137c-.955,0-2.6-.028-3.96-.042h-.014c-.07-.126.112-.618.225-.632a2.238,2.238,0,0,0,.646-.126c.295-.112.351-.267.393-.786.042-.969.028-2.134.028-3.455,0-.941.014-2.78-.014-3.37-.042-.491-.253-.618-.674-.7-.211-.042-.492-.1-.885-.14-.056-.1.2-.534.267-.618Z" transform="translate(-323.777 -46.99)" fill="#8e714e" fill-rule="evenodd"/><path d="M111.477,82.821a2.824,2.824,0,0,1-.913-.239.428.428,0,0,1-.112-.225c-.028-.491-.028-1.9-.028-2.836a3.31,3.31,0,0,0-.449-1.882,1.917,1.917,0,0,0-1.629-.843,3.756,3.756,0,0,0-2.134,1.011c-.014.014-.126.112-.112-.042s.028-.463.042-.674a.364.364,0,0,0-.1-.295,9.372,9.372,0,0,1-2.177.561c-.337.07-.421.393-.07.506h.014a3.115,3.115,0,0,1,.828.365.437.437,0,0,1,.126.393c.014,1.053.014,2.668-.028,3.553-.014.351-.112.477-.365.534l.028-.014a5.544,5.544,0,0,1-.59.112.821.821,0,0,0,0,.632c.154,0,.969-.042,1.643-.042.927,0,1.4.042,1.643.042a.914.914,0,0,0,.07-.632,2.6,2.6,0,0,1-.646-.1c-.253-.056-.323-.182-.337-.477-.028-.744-.028-2.317-.028-3.384a.677.677,0,0,1,.168-.52,2.125,2.125,0,0,1,1.306-.477,1.452,1.452,0,0,1,.969.323,1.381,1.381,0,0,1,.449.885c.07.6.042,1.8.042,2.837,0,.562-.042.7-.253.772a2.673,2.673,0,0,1-.646.126.822.822,0,0,0,0,.632c.407,0,.885-.042,1.587-.042.871,0,1.432.042,1.657.042a.98.98,0,0,0,.042-.6Zm3.89-5.364c-.744,0-1.208.576-1.208,1.474s.407,1.966,1.559,1.966a1.088,1.088,0,0,0,.73-.281,1.859,1.859,0,0,0,.45-1.292c0-1.165-.576-1.868-1.531-1.868Zm-.1,6.206a1.207,1.207,0,0,0-.6.155c-.59.379-.857.744-.857,1.18a1.242,1.242,0,0,0,.492,1.011,2.5,2.5,0,0,0,1.685.52c1.432,0,2.064-.772,2.064-1.53a1.073,1.073,0,0,0-.814-1.081A5.671,5.671,0,0,0,115.269,83.664Zm.1,3.651a3.107,3.107,0,0,1-2.008-.59,1.851,1.851,0,0,1-.744-1.39,1.076,1.076,0,0,1,.281-.7,7.448,7.448,0,0,1,1.292-1.039c.028-.014.042-.028.042-.056a.093.093,0,0,0-.056-.07,1.337,1.337,0,0,1-.913-.885v-.028c-.014-.084-.042-.168.084-.253.1-.07.239-.154.393-.253a5.768,5.768,0,0,0,.646-.421.1.1,0,0,0,.028-.084.093.093,0,0,0-.056-.07,2.048,2.048,0,0,1-1.474-2.149,2.132,2.132,0,0,1,.9-1.769,4.129,4.129,0,0,1,2.022-.688h.042a4.306,4.306,0,0,1,1.545.337,2.6,2.6,0,0,0,.913.14,1.215,1.215,0,0,0,.983-.365.762.762,0,0,1,.056.281,1.061,1.061,0,0,1-.183.646.8.8,0,0,1-.618.267h-.07a3.127,3.127,0,0,1-.365-.056l-.056.028c-.014.028,0,.056.014.1l.014.028a5.184,5.184,0,0,1,.084.6,2.275,2.275,0,0,1-.955,2.036,3.234,3.234,0,0,1-1.643.632,1.768,1.768,0,0,0-.2.014c-.07,0-.168.014-.183.014h-.014c-.112.028-.393.168-.393.407,0,.211.126.464.73.506.126.014.253.014.393.028a12.31,12.31,0,0,1,2.261.281,1.574,1.574,0,0,1,1.053,1.5,3.083,3.083,0,0,1-1.98,2.612,4.517,4.517,0,0,1-1.868.407Zm8-9.787a1.3,1.3,0,0,0-.758.21,2.172,2.172,0,0,0-.828,1.994c0,1.84.927,3.132,2.247,3.132a1.429,1.429,0,0,0,.969-.337,2.5,2.5,0,0,0,.618-1.952c0-1.825-.913-3.047-2.247-3.047Zm.253,6.01a3.1,3.1,0,0,1-3.244-3.4,3.04,3.04,0,0,1,1.39-2.668,4.227,4.227,0,0,1,2.149-.632,3.009,3.009,0,0,1,3.1,3.188,3.26,3.26,0,0,1-1.475,2.907,3.894,3.894,0,0,1-1.924.6ZM98.6,77.527a1.3,1.3,0,0,0-.758.211,2.172,2.172,0,0,0-.828,1.994c0,1.84.927,3.132,2.247,3.132a1.429,1.429,0,0,0,.969-.337,2.5,2.5,0,0,0,.618-1.952C100.847,78.749,99.949,77.527,98.6,77.527Zm.253,6.01a3.1,3.1,0,0,1-3.244-3.4A3.04,3.04,0,0,1,97,77.471a4.227,4.227,0,0,1,2.149-.632,3.008,3.008,0,0,1,3.1,3.188,3.26,3.26,0,0,1-1.475,2.907,3.8,3.8,0,0,1-1.924.6ZM82.8,83.4a.6.6,0,0,1-.042-.323.475.475,0,0,1,.042-.211,5.178,5.178,0,0,0,.618-.126c.281-.07.393-.225.407-.576.042-.843.042-2.444.028-3.553V78.58a.425.425,0,0,0-.154-.393,3.173,3.173,0,0,0-.843-.365c-.126-.042-.211-.112-.2-.2s.084-.183.267-.211a10.274,10.274,0,0,0,2.148-.548.347.347,0,0,1,.07.225l-.014.154c-.014.155-.028.337-.028.52a.109.109,0,0,0,.112.1.2.2,0,0,0,.084-.028,3.96,3.96,0,0,1,2.134-.955,1.818,1.818,0,0,1,1.629,1,.106.106,0,0,0,.1.056.1.1,0,0,0,.084-.042,4.268,4.268,0,0,1,2.2-1.011c1.306,0,2.078.969,2.078,2.612,0,.463,0,1.067-.014,1.615,0,.491-.014.941-.014,1.264a.442.442,0,0,0,.253.337,3,3,0,0,0,.815.2h.014a1.126,1.126,0,0,1-.084.534,3.451,3.451,0,0,1-.351-.014q-.533-.028-1.067-.028c-.871,0-1.32.014-1.755.042a1.37,1.37,0,0,1,0-.534,4.363,4.363,0,0,0,.534-.126c.281-.084.351-.211.365-.576,0-.267.056-2.542-.028-3.089a1.384,1.384,0,0,0-1.432-1.222,2.49,2.49,0,0,0-1.432.548.25.25,0,0,0-.056.14v.014a6.468,6.468,0,0,1,.056,1.151v.913c0,.632-.014,1.222,0,1.671a.411.411,0,0,0,.337.435c.084.014.14.028.211.042.126.028.253.056.449.1a.758.758,0,0,1-.014.393.269.269,0,0,1-.056.14c-.477-.014-.969-.028-1.685-.028-.211,0-.576.014-.885.014-.253,0-.492.014-.632.014a.741.741,0,0,1-.042-.281.437.437,0,0,1,.056-.253.95.95,0,0,1,.2-.028c.168-.028.309-.056.449-.084.239-.07.323-.2.337-.506a24.371,24.371,0,0,0-.014-3.216,1.323,1.323,0,0,0-1.376-1.222,2.576,2.576,0,0,0-1.432.548.453.453,0,0,0-.126.323v.829c0,1.011,0,2.275.014,2.823a.435.435,0,0,0,.393.435,2.939,2.939,0,0,0,.323.056l.253.042a1.177,1.177,0,0,1-.042.534c-.14,0-.309-.014-.506-.014-.295-.014-.674-.028-1.1-.028-.492,0-.843.014-1.123.028A3.391,3.391,0,0,0,82.8,83.4Z" transform="translate(-70.083 -65.142)" fill="#442d22" fill-rule="evenodd"/><path d="M25.024,36.954l-.576-.2s.07-2.935-.983-3.145c-.7-.815.113-34.544,2.64-.112a2.053,2.053,0,0,0-1.025,1.18A10.831,10.831,0,0,0,25.024,36.954Z" transform="translate(-19.69 -15.329)" fill="#fff" fill-rule="evenodd"/><path d="M25.024,36.954l-.576-.2s.07-2.935-.983-3.145c-.7-.815.113-34.544,2.64-.112a2.053,2.053,0,0,0-1.025,1.18A10.831,10.831,0,0,0,25.024,36.954Z" transform="translate(-19.69 -15.329)" fill="#a6a385" fill-rule="evenodd"/><path d="M32.155,19.305A10.2,10.2,0,0,0,36.016,9.1C34.879,4.084,32.2,2.441,31.9,1.809A7.089,7.089,0,0,1,31.27.573l.211,13.944c0,.014-.435,4.269.674,4.789" transform="translate(-26.512 -0.517)" fill="#fff" fill-rule="evenodd"/><path d="M32.155,19.305A10.2,10.2,0,0,0,36.016,9.1C34.879,4.084,32.2,2.441,31.9,1.809A7.089,7.089,0,0,1,31.27.573l.211,13.944c0,.014-.435,4.269.674,4.789" transform="translate(-26.512 -0.517)" fill="#499d4a" fill-rule="evenodd"/><path d="M4.464,19.174S-.269,15.944.012,10.257A11.977,11.977,0,0,1,4.267,1.27,1.308,1.308,0,0,0,4.73.2c.295.632.239,9.451.281,10.49A33.845,33.845,0,0,1,4.464,19.174Z" transform="translate(0 -0.203)" fill="#fff" fill-rule="evenodd"/><path d="M4.464,19.174S-.269,15.944.012,10.257A11.977,11.977,0,0,1,4.267,1.27,1.308,1.308,0,0,0,4.73.2c.295.632.239,9.451.281,10.49A33.845,33.845,0,0,1,4.464,19.174Z" transform="translate(0 -0.203)" fill="#58aa50" fill-rule="evenodd"/></svg>