<svg xmlns="http://www.w3.org/2000/svg" width="77.82" height="52.85" viewBox="0 0 77.82 52.85"><g transform="translate(0)"><path d="M26.519,100.6h-3q-.159-7.6-.877-14.3h-.027l-4.572,14.3H15.755l-4.544-14.3h-.026q-.506,6.43-.638,14.3H7.81q.265-9.568,1.328-17.941H12.86l4.332,13.183h.027l4.358-13.183h3.561q1.17,9.807,1.382,17.941M39.542,87.368Q37.708,97.32,34.7,101.832q-2.34,3.475-5.129,3.476a5.042,5.042,0,0,1-1.834-.447v-1.6a8.831,8.831,0,0,0,1.249.08,3.018,3.018,0,0,0,2.1-.718,2.621,2.621,0,0,0,.956-1.966A13.081,13.081,0,0,0,31.3,97.6l-3.3-10.233h2.95l2.365,7.653a10.327,10.327,0,0,1,.664,3.642,49.992,49.992,0,0,0,2.711-11.3h2.844Z" transform="translate(-7.81 -52.458)" fill="#5d87a1"/><path d="M103.833,100.411H95.3V82.471h2.869V98.2h5.66Zm-10.762.433-3.3-1.628a6.131,6.131,0,0,0,.824-.8q2.1-2.47,2.1-7.308,0-8.9-6.989-8.9a6.619,6.619,0,0,0-5.342,2.26q-2.1,2.472-2.1,7.283,0,4.73,1.86,6.934a6.373,6.373,0,0,0,5.131,1.995,8.267,8.267,0,0,0,2.349-.315l4.294,2.5ZM82.386,96.821q-1.09-1.753-1.09-5.632,0-6.776,4.12-6.778a3.456,3.456,0,0,1,3.162,1.62,10.947,10.947,0,0,1,1.09,5.581q0,6.831-4.119,6.832a3.45,3.45,0,0,1-3.163-1.622m-5.371-1.383a4.76,4.76,0,0,1-1.673,3.747,6.591,6.591,0,0,1-4.489,1.462,8.99,8.99,0,0,1-5.1-1.676l.771-1.541a8.729,8.729,0,0,0,3.852,1.062,4.046,4.046,0,0,0,2.539-.715,2.437,2.437,0,0,0,.977-1.992c0-1.066-.743-1.977-2.107-2.74-1.257-.69-3.772-2.134-3.772-2.134A4.294,4.294,0,0,1,65.964,87.1a4.457,4.457,0,0,1,1.527-3.521,5.756,5.756,0,0,1,3.947-1.343,8.184,8.184,0,0,1,4.543,1.329L75.29,85.1a8.784,8.784,0,0,0-3.453-.743,3.076,3.076,0,0,0-2.124.665,2.223,2.223,0,0,0-.8,1.7c0,1.061.759,1.983,2.16,2.761,1.274.692,3.852,2.16,3.852,2.16a4.24,4.24,0,0,1,2.1,3.791" transform="translate(-32.131 -52.265)" fill="#f8981d"/><path d="M116.354,54.8a10.017,10.017,0,0,0-4.206.608c-.326.13-.843.13-.888.541.176.174.2.455.349.7a5.037,5.037,0,0,0,1.127,1.321c.454.348.91.693,1.389,1,.843.522,1.8.825,2.62,1.345.479.3.954.693,1.434,1.019.236.173.386.455.692.563v-.066c-.153-.195-.2-.477-.347-.694l-.651-.628a10.317,10.317,0,0,0-2.254-2.188c-.694-.478-2.212-1.128-2.493-1.928l-.044-.044a8.636,8.636,0,0,0,1.5-.35c.737-.194,1.41-.15,2.167-.345.348-.087.693-.2,1.043-.3v-.2c-.392-.39-.672-.909-1.084-1.278a28.864,28.864,0,0,0-3.577-2.666c-.673-.435-1.539-.714-2.255-1.084-.258-.131-.693-.195-.845-.412a8.831,8.831,0,0,1-.889-1.669c-.627-1.191-1.235-2.513-1.776-3.773a23.442,23.442,0,0,0-1.106-2.47,21.863,21.863,0,0,0-8.389-8.107,10.4,10.4,0,0,0-2.773-.89l-1.626-.086a8.618,8.618,0,0,1-1-.76c-1.237-.78-4.422-2.47-5.332-.238-.586,1.411.867,2.8,1.366,3.513a9.963,9.963,0,0,1,1.1,1.626c.153.368.2.76.348,1.149a25.967,25.967,0,0,0,1.127,2.905,10.346,10.346,0,0,0,.8,1.342c.174.24.477.346.543.738a6.22,6.22,0,0,0-.5,1.625,9.552,9.552,0,0,0,.63,7.283c.346.542,1.171,1.735,2.275,1.278.977-.39.761-1.625,1.042-2.709.064-.262.022-.433.152-.605V49.9c.3.606.608,1.191.888,1.8a12.359,12.359,0,0,0,2.819,2.9c.519.392.931,1.063,1.581,1.3v-.065h-.043a2.429,2.429,0,0,0-.5-.432,10.527,10.527,0,0,1-1.127-1.3,27.917,27.917,0,0,1-2.427-3.946c-.349-.673-.65-1.409-.932-2.081-.131-.259-.131-.65-.349-.781A8.107,8.107,0,0,0,94.9,48.775a12.262,12.262,0,0,0-.609,3.276l-.085.042c-.69-.173-.931-.888-1.193-1.494a9.388,9.388,0,0,1-.195-5.789c.151-.454.8-1.885.543-2.318-.131-.415-.565-.651-.8-.978a8.812,8.812,0,0,1-.781-1.387c-.52-1.213-.782-2.558-1.342-3.77a11.679,11.679,0,0,0-1.084-1.671A10.739,10.739,0,0,1,88.156,33c-.108-.238-.259-.628-.086-.888a.345.345,0,0,1,.3-.283c.281-.237,1.083.064,1.365.195A10.983,10.983,0,0,1,91.885,33.1c.3.218.629.63,1.018.738h.456c.692.151,1.473.042,2.124.238A13.954,13.954,0,0,1,98.6,35.575a19.233,19.233,0,0,1,6.761,7.414c.259.5.37.954.606,1.473.457,1.063,1.021,2.147,1.474,3.187a14.283,14.283,0,0,0,1.54,2.9c.324.455,1.628.693,2.212.932a15.292,15.292,0,0,1,1.5.606c.737.454,1.472.976,2.165,1.476.345.26,1.43.8,1.495,1.236M94.243,35.966a3.377,3.377,0,0,0-.887.109v.044H93.4a7.072,7.072,0,0,0,.695.889c.175.348.326.692.5,1.039L94.631,38a1.218,1.218,0,0,0,.458-1.084,4.955,4.955,0,0,1-.262-.455c-.128-.217-.409-.325-.584-.5" transform="translate(-41.05 -30.606)" fill="#5d87a1"/></g></svg>