<svg xmlns="http://www.w3.org/2000/svg" width="77.82" height="21.976" viewBox="0 0 77.82 21.976"><g transform="translate(65.354 7.8)"><path d="M436.344,51.611a1.079,1.079,0,0,0-.537.131l-5.159,2.98a1.087,1.087,0,0,0-.537.942v5.948a1.088,1.088,0,0,0,.537.942l1.347.778a2.2,2.2,0,0,0,1.194.318,1.427,1.427,0,0,0,1.523-1.61V56.168a.147.147,0,0,0-.153-.142h-.646a.146.146,0,0,0-.153.142V62.04c0,.453-.472.909-1.238.526l-1.4-.822a.155.155,0,0,1-.088-.131V55.664a.174.174,0,0,1,.088-.142l5.148-2.968a.152.152,0,0,1,.153,0l5.149,2.969a.175.175,0,0,1,.088.143v5.948a.165.165,0,0,1-.077.142l-5.16,2.969a.159.159,0,0,1-.153,0l-1.325-.789a.138.138,0,0,0-.131,0,3.413,3.413,0,0,1-.778.35c-.084.03-.213.075.044.219l1.731,1.019a1.083,1.083,0,0,0,1.074,0l5.16-2.969a1.089,1.089,0,0,0,.537-.942V55.664a1.088,1.088,0,0,0-.537-.942l-5.16-2.98a1.074,1.074,0,0,0-.537-.132Z" transform="translate(-430.111 -51.611)" fill="#83cd29"/><path d="M466.087,79.528c-1.469,0-2.344.625-2.344,1.665,0,1.128.868,1.438,2.279,1.577,1.687.165,1.818.413,1.818.745,0,.576-.459.822-1.544.822-1.364,0-1.663-.34-1.764-1.019a.149.149,0,0,0-.143-.132h-.668a.156.156,0,0,0-.153.153c0,.868.472,1.9,2.728,1.9,1.633,0,2.574-.641,2.574-1.764s-.761-1.412-2.344-1.621c-1.6-.212-1.753-.315-1.753-.69,0-.309.129-.723,1.315-.723,1.059,0,1.45.228,1.61.942a.15.15,0,0,0,.142.12h.668a.162.162,0,0,0,.109-.055.144.144,0,0,0,.044-.109c-.1-1.229-.923-1.808-2.574-1.808Z" transform="translate(-458.474 -75.278)" fill="#83cd29"/></g><path d="M42.111.383a.328.328,0,0,0-.329.329v8.38a.222.222,0,0,1-.109.2.229.229,0,0,1-.23,0L40.074,8.5a.656.656,0,0,0-.657,0L33.95,11.655a.673.673,0,0,0-.329.581v6.31a.656.656,0,0,0,.329.57l5.466,3.155a.655.655,0,0,0,.657,0l5.466-3.155a.656.656,0,0,0,.329-.57V2.815a.668.668,0,0,0-.34-.581L42.276.415a.32.32,0,0,0-.164-.033ZM6.948,8.259a.617.617,0,0,0-.3.077L1.186,11.49a.655.655,0,0,0-.329.57l.011,8.468a.323.323,0,0,0,.164.285.319.319,0,0,0,.329,0L4.6,18.951a.669.669,0,0,0,.34-.57V14.426a.654.654,0,0,1,.329-.57l1.38-.8a.66.66,0,0,1,.657,0l1.38.8a.654.654,0,0,1,.329.57v3.954a.67.67,0,0,0,.34.57L12.6,20.813a.319.319,0,0,0,.329,0,.329.329,0,0,0,.164-.285L13.1,12.06a.652.652,0,0,0-.329-.57L7.309,8.335a.614.614,0,0,0-.3-.077Zm49.12.077a.656.656,0,0,0-.329.088l-5.466,3.155a.656.656,0,0,0-.329.57v6.31a.66.66,0,0,0,.34.57l5.423,3.089a.658.658,0,0,0,.646.011L59.639,20.3a.332.332,0,0,0,.175-.285.324.324,0,0,0-.164-.285l-5.5-3.155a.354.354,0,0,1-.175-.3V14.306a.338.338,0,0,1,.175-.285l1.709-.986a.328.328,0,0,1,.329,0l1.709.986a.328.328,0,0,1,.164.285v1.556a.329.329,0,0,0,.493.285L61.83,14.24a.658.658,0,0,0,.329-.57V12.148a.658.658,0,0,0-.329-.57L56.4,8.423a.651.651,0,0,0-.329-.088Zm-16.344,4.71a.183.183,0,0,1,.088.022l1.873,1.084a.17.17,0,0,1,.088.142v2.169a.169.169,0,0,1-.088.143L39.811,17.69a.166.166,0,0,1-.164,0l-1.873-1.084a.17.17,0,0,1-.088-.143V14.295a.17.17,0,0,1,.088-.142l1.873-1.084a.144.144,0,0,1,.077-.022h0Z" transform="translate(-0.857 -0.383)" fill="#404137"/><path d="M114.618,52.4a.655.655,0,0,0-.329.088l-5.466,3.144a.673.673,0,0,0-.329.581v6.31a.656.656,0,0,0,.329.57l5.466,3.155a.654.654,0,0,0,.657,0l5.466-3.155a.656.656,0,0,0,.329-.57v-6.31a.672.672,0,0,0-.329-.581l-5.466-3.144A.654.654,0,0,0,114.618,52.4Zm32.688,5.631a.134.134,0,0,0-.066.011l-1.052.613a.128.128,0,0,0-.066.11v1.2a.128.128,0,0,0,.066.11l1.052.6a.114.114,0,0,0,.12,0l1.052-.6a.129.129,0,0,0,.066-.109V58.767a.129.129,0,0,0-.066-.109l-1.052-.614a.091.091,0,0,0-.055-.011Z" transform="translate(-92.106 -44.482)" fill="#83cd29"/></svg>