<svg xmlns="http://www.w3.org/2000/svg" width="77.82" height="40.509" viewBox="0 0 77.82 40.509"><ellipse cx="38.91" cy="20.255" rx="38.91" ry="20.255" transform="translate(0 0)" fill="#8993be"/><path d="M35.945,43.842l4.264-21.587h9.86c4.264.267,6.4,2.4,6.4,6.13,0,6.4-5.063,10.127-9.594,9.861h-4.8l-1.066,5.6Zm7.2-9.594,1.333-8h3.465c1.866,0,3.2.8,3.2,2.4-.266,4.531-2.4,5.33-4.8,5.6h-3.2Zm12.335,4,4.264-21.587H64.8l-1.066,5.6h4.8c4.264.267,5.863,2.4,5.33,5.064L72,38.245h-5.33l1.866-9.861c.266-1.333.266-2.132-1.6-2.132h-4l-2.4,11.993Zm16.182,5.6,4.264-21.587h9.861c4.264.267,6.4,2.4,6.4,6.13,0,6.4-5.064,10.127-9.594,9.861h-4.8l-1.066,5.6Zm7.2-9.594,1.333-8H83.65c1.866,0,3.2.8,3.2,2.4-.266,4.531-2.4,5.33-4.8,5.6h-3.2Z" transform="translate(-25.018 -11.594)" fill="#232531" fill-rule="evenodd"/></svg>