<svg xmlns="http://www.w3.org/2000/svg" width="77.82" height="77.821" viewBox="0 0 77.82 77.821"><path d="M38.91,74.909a36,36,0,1,0-36-36A36,36,0,0,0,38.91,74.909Zm0,2.912A38.91,38.91,0,1,1,77.82,38.91,38.909,38.909,0,0,1,38.91,77.82Z" fill="#f4815b"/><g transform="translate(6.794 6.6)"><path d="M275.523,223.875a32.405,32.405,0,1,0-5.833,45.458A32.405,32.405,0,0,0,275.523,223.875Z" transform="translate(-217.47 -211.278)" fill="#ff6c37" fill-rule="evenodd"/><path d="M961.069,652.923c-2.334,1.065-6.133,4.286-12.3,10.425l1.753,1.753.584.587,11.912-11.912a2.415,2.415,0,0,1,1.328-.644,2.786,2.786,0,0,0-3.28-.209m5.255,4.545-12.468,10.956c1.109,1.112,1.718,1.718,2.031,2.034,4.939-4.686,9.641-9.466,10.438-12.99m-21.3,9.682a.045.045,0,0,0,.056.025l5.052-1.09-2.046-2.043-3.055,3.052c-.009.006-.025.019-.006.056m22.9-16.929,4.227-4.227a4.758,4.758,0,1,0-1.018,8.119l-3.205-3.2a.49.49,0,0,1-.144-.344.482.482,0,0,1,.141-.347" transform="translate(-922.289 -631.45)" fill="#fff" fill-rule="evenodd"/><path d="M663.387,702.764a.393.393,0,0,1-.24-.087.376.376,0,0,1-.047-.528,1.113,1.113,0,0,0,.134-1.218.375.375,0,1,1,.672-.334,1.869,1.869,0,0,1-.234,2.031.363.363,0,0,1-.284.137m.4-4.664-3.9,3.908,3.049,3.049a5.053,5.053,0,0,0,.6-.5,4.766,4.766,0,0,0,.256-6.457m-9.154,7.8-11.878,11.881,1.365,1.365L656.7,708.1a1.494,1.494,0,0,0,.509-1.084,1.507,1.507,0,0,0-2.574-1.115M632.472,731.24a.01.01,0,0,0,.006,0,66.231,66.231,0,0,0,13.608-8.685l-1.921-1.918-5.049.784-10,10,3.2,3.2a.172.172,0,0,0,.209.031.168.168,0,0,0,.087-.194l-.547-2.34a.78.78,0,0,1,.4-.872m-1.159,3.743-2.88-2.88-2.443,2.443c-.009.006-.019.019-.009.044a.038.038,0,0,0,.038.031Zm9.1-14.855h.009l.037,0,2.84-.369-1.256-1.262Z" transform="translate(-613.214 -682.891)" fill="#fff" fill-rule="evenodd"/><path d="M1812.317,771.535a.377.377,0,0,0-.675.334,1.12,1.12,0,0,1-.137,1.218.373.373,0,0,0,.05.528.371.371,0,0,0,.528-.05,1.869,1.869,0,0,0,.234-2.031" transform="translate(-1761.622 -753.83)" fill="#ff6c37" fill-rule="evenodd"/></g></svg>