<svg xmlns="http://www.w3.org/2000/svg" width="77.82" height="69.967" viewBox="0 0 77.82 69.967"><path d="M.754,35.642c0,5.877,5.739,11.363,14.786,14.456-1.807,9.1-.324,16.427,4.63,19.283,5.091,2.936,12.676.9,19.875-5.389,7.017,6.039,14.109,8.415,19.058,5.551C64.189,66.6,65.736,58.77,63.88,49.39,73.3,46.275,78.574,41.6,78.574,35.642c0-5.741-5.749-10.707-14.675-13.78,2-9.767.305-16.92-4.853-19.895C54.073-.9,46.9,1.6,39.778,7.8,32.37,1.219,25.267-.789,20.114,2.194,15.145,5.07,13.728,12.534,15.54,21.8,6.8,24.846.754,29.925.754,35.642Z" transform="translate(-0.754 -0.785)" fill="#fff"/><path d="M72.067,34.444q-1.1-.378-2.225-.7.186-.755.344-1.517c1.684-8.175.583-14.761-3.177-16.929-3.605-2.079-9.5.089-15.457,5.271q-.88.768-1.721,1.579-.563-.539-1.145-1.058c-6.241-5.542-12.5-7.877-16.253-5.7-3.6,2.085-4.669,8.277-3.153,16.024q.226,1.151.511,2.289c-.885.251-1.74.519-2.558.8-7.317,2.551-11.99,6.549-11.99,10.7,0,4.283,5.016,8.579,12.638,11.184q.927.315,1.869.584-.306,1.226-.543,2.467c-1.446,7.613-.317,13.658,3.276,15.73,3.71,2.14,9.938-.06,16-5.36q.719-.629,1.442-1.329.91.878,1.868,1.7c5.874,5.054,11.675,7.1,15.264,5.018,3.707-2.146,4.912-8.64,3.347-16.54q-.179-.905-.414-1.847.656-.194,1.285-.4C79.2,53.785,84.354,49.541,84.354,45.2c0-4.162-4.823-8.187-12.288-10.757Z" transform="translate(-10.811 -10.315)" fill="#53c1de"/><path d="M77.048,60.292c-.378.125-.766.246-1.161.363a69.3,69.3,0,0,0-3.5-8.755,69.266,69.266,0,0,0,3.364-8.628c.707.2,1.393.421,2.054.648,6.4,2.2,10.3,5.457,10.3,7.965,0,2.672-4.213,6.14-11.054,8.407Zm-2.838,5.625a25,25,0,0,1,.332,9.121c-.412,2.219-1.239,3.7-2.263,4.29-2.178,1.261-6.836-.378-11.859-4.7q-.864-.743-1.738-1.584a69.38,69.38,0,0,0,5.793-7.356,68.922,68.922,0,0,0,9.36-1.443Q74.046,65.1,74.209,65.917ZM45.5,79.111c-2.128.751-3.823.773-4.847.182-2.18-1.257-3.086-6.111-1.85-12.621q.22-1.154.5-2.295a69.422,69.422,0,0,0,9.313,1.348,71.845,71.845,0,0,0,5.932,7.33q-.643.622-1.317,1.212A25.005,25.005,0,0,1,45.5,79.111ZM35.535,60.276a25.011,25.011,0,0,1-8.061-4.282c-1.714-1.468-2.58-2.926-2.58-4.108,0-2.516,3.752-5.726,10.01-7.908q1.178-.409,2.379-.748a70.808,70.808,0,0,0,3.368,8.728,71.883,71.883,0,0,0-3.41,8.853q-.859-.246-1.706-.534Zm3.342-22.747c-1.3-6.638-.436-11.645,1.734-12.9,2.312-1.338,7.425.57,12.813,5.355.344.306.69.626,1.037.957a70.75,70.75,0,0,0-5.887,7.286,72.14,72.14,0,0,0-9.222,1.433q-.264-1.059-.475-2.129ZM68.689,44.89q-1.013-1.751-2.1-3.456c2.205.278,4.318.648,6.3,1.1a62.983,62.983,0,0,1-2.212,5.951q-.958-1.818-1.988-3.6ZM56.532,33.049a63.142,63.142,0,0,1,4.067,4.91q-4.082-.193-8.168,0C53.773,36.186,55.148,34.541,56.532,33.049ZM44.3,44.91q-1.017,1.764-1.951,3.574c-.86-2.039-1.6-4.044-2.2-5.98,1.972-.441,4.075-.8,6.266-1.076q-1.1,1.716-2.119,3.482Zm2.182,17.643a62.864,62.864,0,0,1-6.369-1.024c.61-1.97,1.362-4.018,2.24-6.1q.938,1.811,1.959,3.576,1.042,1.8,2.17,3.549Zm10.135,8.377c-1.4-1.51-2.795-3.18-4.158-4.976q1.985.078,4.043.078,2.113,0,4.172-.093A62.788,62.788,0,0,1,56.613,70.931ZM70.7,55.322a62.7,62.7,0,0,1,2.321,6.08,62.659,62.659,0,0,1-6.447,1.1q1.1-1.737,2.122-3.517,1.043-1.808,2-3.662Zm-4.562,2.187q-1.57,2.728-3.316,5.35c-2.05.147-4.169.222-6.329.222s-4.243-.067-6.257-.2q-1.79-2.614-3.378-5.358-1.579-2.727-2.949-5.569,1.365-2.84,2.94-5.572h0q1.574-2.73,3.351-5.335c2.055-.155,4.163-.237,6.293-.237s4.25.082,6.3.239q1.758,2.6,3.33,5.317t2.979,5.545q-1.385,2.849-2.97,5.594Zm6.091-32.969c2.314,1.335,3.214,6.717,1.76,13.775q-.143.69-.311,1.374a70.728,70.728,0,0,0-9.241-1.46A69.357,69.357,0,0,0,58.6,30.938q.776-.749,1.589-1.458c5.1-4.44,9.871-6.194,12.044-4.941Z" transform="translate(-17.511 -17)" fill="#fff"/><path d="M114.215,94.665a6.172,6.172,0,1,1-6.171,6.171,6.171,6.171,0,0,1,6.171-6.171" transform="translate(-75.228 -65.951)" fill="#53c1de"/></svg>