<svg xmlns="http://www.w3.org/2000/svg" width="77.82" height="58.332" viewBox="0 0 77.82 58.332"><path d="M66.876,33.737a16.033,16.033,0,0,0-7.053,1.642,14.508,14.508,0,0,1-1.581-3.648,10.09,10.09,0,0,1-.137-3.071,24.6,24.6,0,0,1,.927-3.314c-.015-.137-.167-.806-1.733-.821s-2.919.3-3.071.714a17.457,17.457,0,0,0-.654,2.326c-.274,1.429-3.131,6.491-4.758,9.151a9.336,9.336,0,0,1-1.079-2.675,10.089,10.089,0,0,1-.137-3.07,24.617,24.617,0,0,1,.927-3.314c-.015-.137-.167-.806-1.733-.821s-2.919.3-3.071.714-.319,1.383-.654,2.326c-.319.942-4.12,9.394-5.108,11.6-.5,1.125-.942,2.022-1.262,2.63s-.015.046-.046.106c-.274.517-.426.806-.426.806v.015c-.213.38-.441.745-.547.745a5.069,5.069,0,0,1,.03-2.417c.562-2.934,1.93-7.509,1.915-7.676,0-.076.258-.882-.882-1.292a1.385,1.385,0,0,0-1.6.274c-.091,0-.167.243-.167.243s1.231-5.153-2.356-5.153c-2.25,0-5.351,2.447-6.886,4.682-.973.532-3.04,1.657-5.229,2.858-.836.456-1.7.942-2.523,1.383l-.167-.183c-4.347-4.636-12.389-7.92-12.054-14.152.122-2.265.912-8.239,15.444-15.474,11.9-5.928,21.433-4.3,23.09-.684,2.356,5.168-5.092,14.775-17.465,16.158-4.712.532-7.19-1.292-7.813-1.976-.654-.714-.745-.745-.988-.608-.4.213-.152.851,0,1.231A7.338,7.338,0,0,0,22.505,26.5c2.265.745,7.8,1.155,14.486-1.429,7.494-2.9,13.346-10.96,11.628-17.694C46.872.523,35.5-1.726,24.755,2.089c-6.4,2.28-13.331,5.837-18.317,10.5C.51,18.126-.432,22.959-.037,24.966c1.383,7.159,11.248,11.826,15.2,15.277-.2.106-.38.213-.547.3-1.976.973-9.5,4.91-11.385,9.075-2.128,4.712.334,8.1,1.976,8.558,5.077,1.414,10.276-1.125,13.088-5.305,2.8-4.18,2.463-9.607,1.17-12.085l-.046-.091,1.55-.912c1-.593,1.991-1.14,2.858-1.611a18.926,18.926,0,0,0-1.018,5.168c-.213,2.675.882,6.141,2.326,7.509A2.573,2.573,0,0,0,27,51.46c1.672,0,2.432-1.383,3.268-3.04,1.034-2.022,1.946-4.363,1.946-4.363S31.078,50.4,34.195,50.4c1.14,0,2.28-1.474,2.8-2.234v.015s.03-.046.091-.152.125-.191.182-.289v-.03c.456-.79,1.474-2.6,2.995-5.594,1.961-3.861,3.846-8.695,3.846-8.695a27.747,27.747,0,0,0,.745,3.131A29.964,29.964,0,0,0,46.477,40.2c-.456.638-.73,1-.73,1l.015.015c-.365.486-.775,1-1.2,1.52a44.177,44.177,0,0,0-3.648,4.576,1.252,1.252,0,0,0,.334,1.672,3.043,3.043,0,0,0,1.915.3,8.532,8.532,0,0,0,2.858-.654,9.9,9.9,0,0,0,2.463-1.292,5.482,5.482,0,0,0,2.356-4.849,9.749,9.749,0,0,0-.9-3.42c.137-.2.274-.4.41-.608a64.165,64.165,0,0,0,4.256-7.372,27.745,27.745,0,0,0,.745,3.131,21.953,21.953,0,0,0,1.383,3.131,13.514,13.514,0,0,0-4.15,5.366c-.9,2.584-.2,3.755,1.125,4.028a4.046,4.046,0,0,0,2.082-.426,9.436,9.436,0,0,0,2.63-1.353c1.52-1.125,2.979-2.691,2.9-4.8a9.208,9.208,0,0,0-.654-2.843,14.809,14.809,0,0,1,7.54-.866c6.764.79,8.1,5.016,7.844,6.779a4.541,4.541,0,0,1-2.143,3.04c-.471.289-.623.4-.578.608.061.319.274.3.684.243a5.262,5.262,0,0,0,3.679-4.7c.182-4.181-3.785-8.741-10.823-8.7ZM14.707,51.324c-2.234,2.447-5.381,3.375-6.719,2.584-1.444-.836-.882-4.439,1.87-7.038a35.766,35.766,0,0,1,5.275-3.937c.319-.2.806-.486,1.383-.836a1.622,1.622,0,0,1,.152-.091c.106-.061.228-.137.35-.213a9.7,9.7,0,0,1-2.31,9.531ZM31.048,40.212c-.775,1.9-2.417,6.779-3.4,6.506-.851-.228-1.368-3.922-.167-7.57a16.9,16.9,0,0,1,2.66-4.88c1.231-1.368,2.569-1.824,2.9-1.262C33.435,33.737,31.534,39.026,31.048,40.212Zm13.483,6.445c-.334.167-.638.289-.775.2-.106-.061.137-.289.137-.289s1.687-1.809,2.356-2.645c.38-.486.836-1.049,1.322-1.687v.182c0,2.189-2.1,3.648-3.04,4.241Zm10.4-2.371c-.243-.182-.213-.745.608-2.508A9.4,9.4,0,0,1,57.847,38.8a3.76,3.76,0,0,1,.228,1.307A4.277,4.277,0,0,1,54.928,44.286Z" transform="translate(0.116 -0.241)" fill="#cf649a"/></svg>