<svg xmlns="http://www.w3.org/2000/svg" width="77.82" height="76.988" viewBox="0 0 77.82 76.988"><path d="M3.465,252.4s-1.9-1.366.379-3.191l5.3-4.739a2.249,2.249,0,0,1,3.12-.205l48.9,37.024v17.754s-.024,2.788-3.6,2.48Z" transform="translate(-2.725 -225.556)" fill="#2489ca"/><path d="M17.991,498.8l-12.6,11.459s-1.3.964,0,2.685l5.852,5.323s1.39,1.493,3.443-.205L28.045,507.93Z" transform="translate(-4.646 -460.51)" fill="#1070b3"/><path d="M311.075,59.91l23.116-17.651-.15-17.659s-.987-3.854-4.281-1.848L299,50.749Z" transform="translate(-275.601 -21.525)" fill="#0877b9"/><path d="M689.179,89.955a3.179,3.179,0,0,0,2.97.924L710.163,82c2.306-1.572,1.982-3.522,1.982-3.522V25.471a3.544,3.544,0,0,0-2.385-3.135L694.147,14.81c-3.412-2.109-5.647.379-5.647.379s2.875-2.069,4.281,1.848V87.128a3.185,3.185,0,0,1-.308,1.382c-.411.829-1.3,1.6-3.443,1.279Z" transform="translate(-634.34 -13.962)" fill="#3c99d4"/></svg>