<svg xmlns="http://www.w3.org/2000/svg" xmlns:xlink="http://www.w3.org/1999/xlink" width="341.85" height="244.953" viewBox="0 0 341.85 244.953"><defs><linearGradient id="a" x1="3.716" y1="3.003" x2="3.716" y2="2.003" gradientUnits="objectBoundingBox"><stop offset="0" stop-color="gray" stop-opacity="0.251"/><stop offset="0.535" stop-color="gray" stop-opacity="0.122"/><stop offset="1" stop-color="gray" stop-opacity="0.102"/></linearGradient><linearGradient id="b" x1="1.976" y1="1.899" x2="1.976" y2="0.882" xlink:href="#a"/></defs><g transform="translate(18.998 0)"><ellipse cx="161.426" cy="35.954" rx="161.426" ry="35.954" transform="translate(0 156.84)" fill="#fff"/><path d="M859.418,391.611l-15.741,78.868H840.27l-.375-.583-1.085-1.689,13.631-73.676,2.069-.867Z" transform="translate(-623.155 -317.17)" fill="#47465a"/><path d="M854.51,397.21l-14.615,76.231-1.085-1.689,13.631-73.676Z" transform="translate(-623.155 -320.715)" opacity="0.1"/><path d="M910.206,504.081l-4.047,1.3-.983.318-1.3-2.921L881.6,401.182l2.316-.519,4.865-1.091Z" transform="translate(-650.25 -322.21)" fill="#47465a"/><path d="M906.159,507.268l-.983.318-1.3-2.921L881.6,403.064l2.316-.519Z" transform="translate(-650.25 -324.092)" opacity="0.1"/><path d="M417.953,391.611l-3.57,102.236-4.091.909-.29.065-1.136-2.11,2.272-100.127,2.186-.312Z" transform="translate(-350.948 -317.17)" fill="#47465a"/><path d="M413.323,393.415,410.291,495.9l-.29.065-1.136-2.109,2.272-100.127Z" transform="translate(-350.948 -318.312)" opacity="0.1"/><path d="M445.653,533.116l-4.232.73-.474.081-1.3-2.758-20.61-133.557.594-.18,3.139-.956Z" transform="translate(-357.389 -320.25)" fill="#47465a"/><path d="M441.421,535.5l-.474.081-1.3-2.758-20.61-133.557.594-.18Z" transform="translate(-357.389 -321.899)" opacity="0.1"/><path d="M770.246,403.427,786,423.562a5.11,5.11,0,0,0,4.618,1.926l64.687-7.576a5.11,5.11,0,0,0,4.515-5.075V397.91Z" transform="translate(-592.404 -337.262)" fill="#7a799c"/><path d="M880.387,377.9h4.382v6.324a1.628,1.628,0,0,1-1.628,1.628h-1.126a1.628,1.628,0,0,1-1.628-1.628V377.9Z" transform="translate(-649.479 -308.488)" fill="#47465a"/><path d="M453.539,438.371,469.3,458.506a5.11,5.11,0,0,0,4.618,1.926l64.687-7.576a5.11,5.11,0,0,0,4.516-5.075V432.854Z" transform="translate(-391.889 -359.386)" fill="#7a799c"/><path d="M563.68,412.842h4.382v6.324a1.628,1.628,0,0,1-1.628,1.628h-1.125a1.628,1.628,0,0,1-1.628-1.628Z" transform="translate(-448.965 -330.612)" fill="#47465a"/><path d="M439.246,390.6l192.412-22.413a2.83,2.83,0,0,0,.946-5.338l-34.419-17.31a39.837,39.837,0,0,0-21.94-4.042L405.3,358.926a3.272,3.272,0,0,0-2,5.538l19.906,20.423a19.325,19.325,0,0,0,16.041,5.71Z" transform="translate(-359.493 -301.415)" fill="#47465a"/><path d="M1073.873,404.355l-2.058-1.138s-2.222,1.636-4.032,8.526,3.383.075,3.383.075l2.272-4.706Z" transform="translate(-780.538 -340.623)" fill="#47465a"/><path d="M880.742,545.766s-2.11,9.9-3.083,12.658c-.477,1.35-2.782,2.585-5.336,3.53a35.728,35.728,0,0,1-7,1.826c-2.759.324-38.136-5.193-55.338-8.925-11.588-2.514-13.086-5.4-12.83-7.01a2.341,2.341,0,0,1,.659-1.266s17.04-11.522,23.044-17.039,17.851-1.136,30.833,1.136S880.742,545.766,880.742,545.766Z" transform="translate(-609.426 -418.908)" fill="#47465a"/><path d="M1024.808,403.217s7.952,5.193-18.824,15.9c0,0-14.554,8.206-12.659,42.009a9.271,9.271,0,0,0,1.348,4.293c2.763,4.544,8.683,16.046-1.184,17.474v2.6s17.851-8.925,19.8-16.553,8.439-49.982,11.684-53.877S1030.326,405,1024.808,403.217Z" transform="translate(-733.532 -340.623)" fill="#47465a"/><path d="M872.323,598.152a35.725,35.725,0,0,1-7,1.826c-2.759.325-38.136-5.193-55.338-8.925-11.588-2.514-13.086-5.4-12.83-7.01,7.618,2.6,32.352,10.871,41.229,11.554,10.548.811,30.7,3.067,32.227,1.533C871.2,596.539,871.8,597.162,872.323,598.152Z" transform="translate(-609.426 -455.107)" opacity="0.1"/><path d="M749.457,672.74l15.417-70.43s2.759-7.465,9.088-7.14l5.842,2.921s-9.737-2.272-11.846,5.193-15.579,69.456-15.579,69.456Z" transform="translate(-579.241 -462.146)" fill="#47465a"/><path d="M815.808,600.93l6.166-43h2.759l-6.329,43Z" transform="translate(-608.593 -422.468)" fill="#47465a"/><path d="M1001.233,684.73l-5.842-67.184s0-5.68,2.921-8.439,12.351-10.628,12.351-10.628,2.417-.569,4.364,4.949,15.417,60.693,15.417,60.693l-2.6,1.136-16.715-63.614L999.61,612.516s-2.272,4.057-1.136,7.789,5.355,64.425,5.355,64.425Z" transform="translate(-734.948 -464.237)" fill="#47465a"/><path d="M927.717,579.158l14.6,4.219,3.246-3.083-8.438-1.136Z" transform="translate(-679.445 -435.91)" fill="#47465a"/><path d="M608.3,287.226l2.368,35.522,51.767-5.031-2.06-34.725a3.492,3.492,0,0,0-3.779-3.273l-45.1,3.794a3.493,3.493,0,0,0-3.192,3.712Z" transform="translate(-489.866 -262.426)" fill="#7a799c"/><path d="M650.24,348.951l-51.605,5.63-1.947.212-15.092-9.737v-2.11l51.28-4.618Z" transform="translate(-460.307 -283.435)" fill="#7a799c"/><path d="M598.634,362.931l-1.947.212-15.092-9.737v-1.889Z" transform="translate(-460.307 -291.786)" opacity="0.1"/><path d="M583.364,249.492l1.785,31.645,45.438-4.219-1.623-30.833Z" transform="translate(-461.427 -225.033)" fill="#9493b6"/><path d="M657.233,362.993l5.517,3.733,16.715-1.623-5.68-3.57Z" transform="translate(-508.195 -298.126)" opacity="0.1"/><path d="M595.749,345.846l6.978,5.193,44.627-4.219-7.952-5.193Z" transform="translate(-469.268 -285.524)" fill="#9493b6"/><path d="M907.423,343.113s5.577-2.7,7.126,6.79,6.971,39.5,0,43.954-23.042,11.618-23.042,11.618-9.488-6.39-5.034-8.713,15.1-8.907,16.652-11.231,3.114-28.259.4-32.519S907.423,343.113,907.423,343.113Z" transform="translate(-665.236 -302.345)" opacity="0.1"/><g transform="translate(127.717)"><path d="M758.755,400.407l-16.326,45,10.24,5.937L777.915,408.3Z" transform="translate(-692.015 -270.009)" fill="#ffd0d0"/><path d="M757.125,400.407l-22.686,48.146,15.88,8.823,28.233-48.146Z" transform="translate(-683.234 -276.036)"/><path d="M697.069,600.393l-24.344,50.04-13.75,13.75s-18.934.225-11.5,7.438,30.43-1.353,30.43-1.353l-.676,2.7,14.877-1.352-.451-5.41-1.353-.676s.9-10.369-1.352-12.4,4.057-4.508,4.057-4.508l25.922-45.081Z" transform="translate(-645.749 -432.803)" fill="#2f2e41"/><path d="M777.385,490.9s-25.585,14.925-18.922,28.517,8.795,14.658,8.795,14.658l13.592-9.861-2.4-5.6L805.1,503.16S784.581,487.435,777.385,490.9Z" transform="translate(-719.162 -363.581)"/><path d="M766.571,565.788l32.014,51.175,3.271,14.254s-11.684,14.721-3.038,15.656,18.46-12.852,18.928-19.162,1.168-10.282,1.168-10.282l2.337.935s7.01-11.217,3.505-12.619a54.565,54.565,0,0,0-6.309-2.1s-5.141-3.272-10.048-2.1c0,0,.935-3.739,0-5.375S782.51,553.3,782.51,553.3Z" transform="translate(-722.89 -401.966)" fill="#2f2e41"/><ellipse cx="14.048" cy="14.048" rx="14.048" ry="14.048" transform="translate(82.718 7.19)" fill="#ffd0d0"/><path d="M889.484,211.243s4.508,12.848,3.381,16.455-10.143,20.512-10.143,20.512l1.127,7.889,22.541-34.712s-5.635-7.438-4.057-12.623Z" transform="translate(-798.851 -186.335)" fill="#ffd0d0"/><path d="M855.481,449.22l-11.124,36.853s-39.459-23.566-50.42-22.744c0,0,23.84-27.128,32.883-27.128S855.481,449.22,855.481,449.22Z" transform="translate(-744.075 -330.204)" fill="#2f2e41"/><path d="M897.214,240.782s-5.184-8.34-11.5-1.127S867.912,265.8,867.912,265.8l.805-5.389s-7.117,5.389-7.568,12.376-2.254,30.43-2.254,30.43l-2.93,9.918,34.716,18.276,4.508-7.664,2.025-35.543Z" transform="translate(-782.012 -203.927)" fill="#110a2b"/><path d="M864.835,374.172l-18.623,25.762s-22.347,8.691-18.623,15.829S850.247,404.9,850.247,404.9l27.934-24.52Z" transform="translate(-771.986 -294.94)" fill="#ffd0d0"/><path d="M910.246,252.008s-9.918,15.778-10.369,27.725-.338,10.707-.338,10.707l-4.959,6.988,11.721,6.537,5.973-6.2s13.3-3.832,11.721-14.877-2.479-31.557-4.734-31.557S910.246,252.008,910.246,252.008Z" transform="translate(-806.314 -213.125)" opacity="0.1"/><path d="M914.931,246.084s-12.219,19.439-12.774,34.156.833,15,.833,15l-7.5,10,13.885,7.5,8.053-10.275s16.384-4.721,14.44-18.328-3.055-38.877-5.832-38.877S914.931,246.084,914.931,246.084Z" transform="translate(-812.758 -214.434)"/><path d="M870.65,162.823s-3.818-18.442,16.177-13.828c0,0,13.751-3.625,19.658,13.47l6.8,35.633-2.351-1.056-.876,2.38-3.587,1.206-1.8-2.987-.469,3.83-23.5,2.852s5.81-24.236,4.935-38.473l-2.349,2.9Z" transform="translate(-791.07 -148.253)" fill="#34160b"/></g></g><g transform="translate(0 105.653)"><path d="M756.33,229.725a13.358,13.358,0,0,0,5.025-.692c3.239-.943,6.6-2.442,8.279-5.368a15.486,15.486,0,0,0,1.3-3.449,31.529,31.529,0,0,0,1.5-7.291,15.8,15.8,0,0,0-1.72-7.888,1.7,1.7,0,0,0-.873-.814,1.032,1.032,0,0,0-1.314.465c-1.751,2.245-1.57,5.37-1.716,8.213a29.627,29.627,0,0,1-1.658,8.355,5.472,5.472,0,0,1-1.964,2.972,5.981,5.981,0,0,1-2.106.675,4.969,4.969,0,0,1-3.258-.129c-1-.537-1.663-1.929-2.818-2.16s-2.7.968-3.212,1.977C750.419,227.323,754.064,229.5,756.33,229.725Z" transform="translate(-686.323 -184.446)" fill="#ffd180"/><g transform="translate(65.174 19.688)" opacity="0.1"><path d="M817.838,224.229a5.982,5.982,0,0,1-2.106.675,7.362,7.362,0,0,1-2.285.169,5.4,5.4,0,0,0,3.03.029,5.982,5.982,0,0,0,2.106-.675,5.473,5.473,0,0,0,1.964-2.972A29.62,29.62,0,0,0,822.2,213.1c.146-2.844-.035-5.969,1.717-8.213a1.209,1.209,0,0,1,.8-.545,1.521,1.521,0,0,0-.23-.118,1.032,1.032,0,0,0-1.314.465c-1.752,2.245-1.57,5.37-1.716,8.213a29.624,29.624,0,0,1-1.658,8.355A5.471,5.471,0,0,1,817.838,224.229Z" transform="translate(-806.141 -204.134)"/><path d="M752.545,362.789a3.907,3.907,0,0,1,2.945-2,1.83,1.83,0,0,0-.478-.173c-1.143-.229-2.7.968-3.212,1.977-1.289,2.548,1.8,4.611,4.055,5.062C753.733,366.954,751.394,365.066,752.545,362.789Z" transform="translate(-751.497 -342.134)"/></g><rect width="21.963" height="6.358" transform="translate(55.745 20.317) rotate(26.478)" opacity="0.1"/><rect width="21.963" height="5.78" transform="translate(55.745 20.317) rotate(26.478)" fill="#341d82"/><ellipse cx="3.468" cy="3.468" rx="3.468" ry="3.468" transform="translate(64.86 20.104)" fill="#341d82"/><path d="M553.3,42.692s6,1.628,8.19,4.08c0,0,3.542-3.006,5.18-2.19s-.808,7.094-.808,7.094L563.695,61.5s1.127,23.732-14.143,28.393-26.211-14.419-22.675-21.517,14.155-20.209,14.155-20.209,9.26-10.381,10.9-10.929S553.3,42.692,553.3,42.692Z" transform="translate(-487.606 -37.203)" fill="#ffd180"/><g transform="translate(40.947 0)" opacity="0.1"><path d="M833.336,255.32a48.254,48.254,0,0,0,1.263-12.107l-.342,1.551A48.228,48.228,0,0,1,833.336,255.32Z" transform="translate(-799.457 -218.916)" fill="#fff"/><path d="M546.117,67.392c3.536-7.1,12.1-17.674,12.1-17.674s9.26-10.381,10.9-10.929,1.372,5.454,1.372,5.454,6,1.628,8.19,4.08c0,0,3.542-3.006,5.18-2.19.636.317.655,1.457.442,2.733.474-1.785.79-3.841-.1-4.284-1.638-.816-5.18,2.19-5.18,2.19-2.186-2.452-8.19-4.08-8.19-4.08s.264-6-1.372-5.454-10.9,10.929-10.9,10.929-8.566,10.576-12.1,17.674C546.14,66.482,546.015,67.6,546.117,67.392Z" transform="translate(-546.082 -37.203)" fill="#fff"/></g><circle cx="1.22" cy="1.22" r="1.22" transform="translate(70.362 19.128)" fill="#58555d"/><circle cx="1.22" cy="1.22" r="1.22" transform="translate(57.803 12.873)" fill="#58555d"/><ellipse cx="1.22" cy="1.83" rx="1.22" ry="1.83" transform="translate(62.849 18.724) rotate(-63.522)" fill="#58555d"/><rect width="0.61" height="5.624" transform="translate(74.785 22.275) rotate(-76.039)" fill="#ffd180"/><rect width="0.61" height="6.221" transform="translate(73.69 24.456) rotate(-74.788)" fill="#ffd180"/><rect width="0.61" height="6.57" transform="matrix(0.746, -0.665, 0.665, 0.746, 50.873, 6.942)" fill="#ffd180"/><rect width="0.61" height="8.023" transform="translate(47.927 8.903) rotate(-54.776)" fill="#ffd180"/><path d="M603.336,298.57s-.316,10.148-5.651,8.368.734-8.264.734-8.264.628-2.511-.522-3.243" transform="translate(-548.715 -264.975)" opacity="0.1"/><path d="M661.772,339.728s-8.443,5.639-4.109,9.223,6.624-5,6.624-5,1.8-1.862,3.028-1.273" transform="translate(-602.464 -304.048)" opacity="0.1"/><path d="M600.521,294.729s-.316,10.148-5.651,8.368.734-8.264.734-8.264.628-2.511-.522-3.243" transform="translate(-546.232 -261.587)" fill="#ffd180"/><path d="M666.162,338.248s-8.443,5.639-4.109,9.223,6.624-5,6.624-5,1.8-1.862,3.028-1.273" transform="translate(-606.337 -302.743)" fill="#ffd180"/><rect width="1.8" height="0.096" transform="translate(47.087 40.614) rotate(-63.522)" fill="#58555d" opacity="0.5"/><rect width="1.8" height="0.096" transform="translate(48.466 41.301) rotate(-63.522)" fill="#58555d" opacity="0.5"/><rect width="2.519" height="0.096" transform="translate(47.653 41.058) rotate(-63.522)" fill="#58555d" opacity="0.5"/><rect width="1.8" height="0.096" transform="translate(56.225 44.736) rotate(-63.522)" fill="#58555d" opacity="0.5"/><rect width="1.8" height="0.096" transform="translate(57.605 45.423) rotate(-63.522)" fill="#58555d" opacity="0.5"/><rect width="2.519" height="0.096" transform="translate(56.792 45.18) rotate(-63.522)" fill="#58555d" opacity="0.5"/><path d="M513.488,207.363h0" transform="translate(-452.927 -182.907)" fill="#4d8af0"/><path d="M396.732,615.539H394.27v20.819s15.894,5.149,31.34,0V615.539Z" transform="translate(-371.227 -547.33)" fill="#3f3d56"/><ellipse cx="15.446" cy="2.351" rx="15.446" ry="2.351" transform="translate(23.043 65.97)" fill="#3f3d56"/><ellipse cx="15.446" cy="2.351" rx="15.446" ry="2.351" transform="translate(23.043 65.97)" opacity="0.1"/><path d="M516.29,188.965c-3.9,14.4-17.243,23.325-17.243,23.325s-7.029-14.433-3.132-28.837,17.243-23.325,17.243-23.325S520.187,174.561,516.29,188.965Z" transform="translate(-459.846 -145.631)" fill="#3f3d56"/><path d="M368.117,188.965c3.9,14.4,17.243,23.325,17.243,23.325s7.029-14.433,3.132-28.837-17.243-23.325-17.243-23.325S364.221,174.561,368.117,188.965Z" transform="translate(-347.121 -145.631)" fill="#110a2b"/><path d="M225.615,294c10.692,10.409,12,26.409,12,26.409s-16.03-.875-26.722-11.284-12-26.409-12-26.409S214.922,283.589,225.615,294Z" transform="translate(-198.893 -253.758)" fill="#3f3d56"/><path d="M539.2,294c-10.692,10.409-12,26.409-12,26.409s16.03-.875,26.722-11.284,12-26.409,12-26.409S549.889,283.589,539.2,294Z" transform="translate(-488.478 -253.758)" fill="#3f3d56"/><circle cx="4.925" cy="4.925" r="4.925" transform="translate(33.788 9.558)" fill="#110a2b"/><ellipse cx="11.086" cy="11.086" rx="11.086" ry="11.086" transform="translate(72.44 75.197)" fill="url(#a)"/><ellipse cx="10.379" cy="10.379" rx="10.379" ry="10.379" transform="translate(73.147 75.905)" fill="#ff7510"/><g transform="translate(42.116 51.858)" opacity="0.5"><path d="M567.284,518.413c-1.567.138-3.291-.64-3.629-2.193a4.828,4.828,0,0,1,.413-2.623c.328-.93.611-1.733.2-2.394a2.515,2.515,0,0,0-.836-.731c-.422-.263-.875-.505-1.314-.74a14.409,14.409,0,0,1-2.236-1.381,4.315,4.315,0,0,1-1.85-3.9,6,6,0,0,1,1.731-2.922,4.387,4.387,0,0,0,1.5-2.746c-.023-1.393-1.447-2.393-2.7-3.275l-.2-.138c-1.533-1.081-3-2.957-2.11-4.687a4.157,4.157,0,0,1,1.338-1.366,4.952,4.952,0,0,0,.923-.807c.922-1.141.451-2.832.206-3.506-.186-.512-.43-1.023-.665-1.518a12.767,12.767,0,0,1-.916-2.3l-.034-.134a5.124,5.124,0,0,1,.029-3.914l.066-.235.795.224-.067.235a4.483,4.483,0,0,0-.024,3.484l.034.134a11.966,11.966,0,0,0,.862,2.149c.244.512.5,1.041.7,1.591a4.389,4.389,0,0,1-.34,4.306,5.638,5.638,0,0,1-1.073.951,3.493,3.493,0,0,0-1.1,1.083c-.7,1.345.837,2.916,1.852,3.633l.195.137c1.347.946,3.023,2.124,3.054,3.937.023,1.344-.858,2.342-1.709,3.307a5.331,5.331,0,0,0-1.534,2.5,3.621,3.621,0,0,0,1.55,3.128,13.56,13.56,0,0,0,2.111,1.3c.45.241.915.49,1.36.767a3.228,3.228,0,0,1,1.1,1c.617,1,.24,2.068-.125,3.1a4.184,4.184,0,0,0-.385,2.172c.263,1.207,1.846,1.756,3.1,1.495a9.148,9.148,0,0,0,2.891-1.377c.31-.193.63-.393.953-.579,1.761-1.011,3.357-1.259,4.615-.715a6.087,6.087,0,0,1,1.118.682,6.165,6.165,0,0,0,.858.547,2.967,2.967,0,0,0,3.8-1.321c.061-.126.115-.261.173-.4a2.621,2.621,0,0,1,.865-1.294,2.649,2.649,0,0,1,1.555-.33l4.616.039-.007.825-4.616-.039a1.321,1.321,0,0,0-1.648,1.107c-.06.149-.122.3-.194.454a3.79,3.79,0,0,1-4.91,1.705,6.872,6.872,0,0,1-.976-.617,5.4,5.4,0,0,0-.966-.6c-1.275-.552-2.812.062-3.876.673-.31.178-.624.374-.927.563a9.9,9.9,0,0,1-3.16,1.485A3.876,3.876,0,0,1,567.284,518.413Z" transform="translate(-555.987 -476.905)" fill="url(#b)"/></g><path d="M569.012,515.249c-1.567.138-3.291-.64-3.629-2.193a4.829,4.829,0,0,1,.413-2.623c.328-.93.611-1.733.2-2.394a2.514,2.514,0,0,0-.836-.731c-.422-.263-.875-.505-1.314-.74a14.4,14.4,0,0,1-2.236-1.381,4.314,4.314,0,0,1-1.85-3.9,6,6,0,0,1,1.731-2.922,4.386,4.386,0,0,0,1.5-2.746c-.023-1.393-1.447-2.393-2.7-3.275l-.2-.138c-1.533-1.081-3-2.957-2.11-4.687a4.156,4.156,0,0,1,1.338-1.366,4.956,4.956,0,0,0,.923-.807c.921-1.141.451-2.832.206-3.506-.186-.512-.43-1.023-.665-1.518a12.763,12.763,0,0,1-.916-2.3l-.034-.134a5.124,5.124,0,0,1,.029-3.914l.066-.235.795.224-.066.235a4.483,4.483,0,0,0-.024,3.484l.034.134a11.963,11.963,0,0,0,.862,2.149c.244.512.5,1.041.7,1.591a4.39,4.39,0,0,1-.34,4.306,5.637,5.637,0,0,1-1.073.951,3.5,3.5,0,0,0-1.1,1.083c-.7,1.345.837,2.916,1.852,3.633l.195.137c1.347.946,3.023,2.124,3.054,3.937.023,1.344-.858,2.342-1.709,3.307a5.33,5.33,0,0,0-1.534,2.5,3.62,3.62,0,0,0,1.55,3.129,13.566,13.566,0,0,0,2.111,1.3c.45.241.915.49,1.36.767a3.227,3.227,0,0,1,1.1,1c.617,1,.24,2.068-.125,3.1a4.184,4.184,0,0,0-.385,2.172c.263,1.207,1.847,1.757,3.1,1.495A9.147,9.147,0,0,0,572.184,513c.31-.193.63-.393.953-.579,1.761-1.012,3.357-1.259,4.615-.715a6.094,6.094,0,0,1,1.118.682,6.171,6.171,0,0,0,.858.547,2.967,2.967,0,0,0,3.8-1.321c.061-.126.115-.262.173-.4a2.621,2.621,0,0,1,.865-1.294,2.649,2.649,0,0,1,1.555-.33l4.616.039-.007.826-4.615-.039a1.321,1.321,0,0,0-1.648,1.107c-.06.149-.122.3-.194.454a3.79,3.79,0,0,1-4.91,1.705,6.862,6.862,0,0,1-.976-.617,5.4,5.4,0,0,0-.966-.6c-1.275-.552-2.812.062-3.876.673-.31.178-.624.374-.927.563a9.891,9.891,0,0,1-3.16,1.485A3.882,3.882,0,0,1,569.012,515.249Z" transform="translate(-515.396 -422.256)" fill="#ff7510"/><path d="M916.675,706.708s5.786.5,6.651,8.943" transform="translate(-832.02 -627.747)" fill="none" stroke="#000" stroke-miterlimit="10" stroke-width="1" opacity="0.2"/><path d="M836.077,712.952s-2.737-6.862,6.2-11.559" transform="translate(-760.579 -623.059)" fill="none" stroke="#000" stroke-miterlimit="10" stroke-width="1" opacity="0.2"/><path d="M855.658,741.2s-1.262-3.559,1.5-5.816" transform="translate(-777.945 -653.038)" fill="none" stroke="#000" stroke-miterlimit="10" stroke-width="1" opacity="0.2"/><path d="M902.4,732.565s2.4,1.683,1.639,6.486" transform="translate(-819.424 -650.554)" fill="none" stroke="#000" stroke-miterlimit="10" stroke-width="1" opacity="0.2"/><path d="M939.98,692.1s3.946,1.783,5.457,8.161" transform="translate(-852.576 -614.862)" fill="none" stroke="#000" stroke-miterlimit="10" stroke-width="1" opacity="0.2"/><path d="M891.17,693.857s2.287-.913,3.929.245" transform="translate(-809.523 -616.11)" fill="none" stroke="#000" stroke-miterlimit="10" stroke-width="1" opacity="0.2"/><path d="M877.119,803.415s2.215,2.291,10.1-.893" transform="translate(-797.13 -712.26)" fill="none" stroke="#000" stroke-miterlimit="10" stroke-width="1" opacity="0.2"/><path d="M832.738,704.649a9.079,9.079,0,0,0-2.943,6.89" transform="translate(-755.386 -625.931)" fill="none" stroke="#000" stroke-miterlimit="10" stroke-width="1" opacity="0.2"/><path d="M851.169,798.256a2.322,2.322,0,0,0,.944,2.64" transform="translate(-774.144 -708.498)" fill="none" stroke="#000" stroke-miterlimit="10" stroke-width="1" opacity="0.2"/><path d="M951.972,810.871s-.808,2.913-2.484,2.706" transform="translate(-860.963 -719.625)" fill="none" stroke="#000" stroke-miterlimit="10" stroke-width="1" opacity="0.2"/><path d="M928.618,745.307a3.269,3.269,0,0,1,.622,3.023" transform="translate(-842.555 -661.793)" fill="none" stroke="#000" stroke-miterlimit="10" stroke-width="1" opacity="0.2"/><path d="M875.525,750.7a4.7,4.7,0,0,0-.169,3.448" transform="translate(-795.325 -666.553)" fill="none" stroke="#000" stroke-miterlimit="10" stroke-width="1" opacity="0.2"/><path d="M889.858,749.735s1.019,2.16.3,3.407" transform="translate(-808.365 -665.699)" fill="none" stroke="#000" stroke-miterlimit="10" stroke-width="1" opacity="0.2"/></g></svg>