<svg id="Group_5" data-name="Group 5" xmlns="http://www.w3.org/2000/svg" width="164.466" height="181.406" viewBox="0 0 164.466 181.406">
  <path id="Path_712" data-name="Path 712" d="M209.761,162H70v45.881h5.294v12l12-12H209.761Z" transform="translate(-70 -162)" fill="#341d82"/>
  <path id="Path_713" data-name="Path 713" d="M209.761,512H70v45.881h5.294v12l12-12H209.761Z" transform="translate(-70 -388.474)" fill="#341d82"/>
  <path id="Path_714" data-name="Path 714" d="M140,338H279.761v45.881h-5.294v12l-12-12H140Z" transform="translate(-115.295 -275.884)" fill="#341d82"/>
  <rect id="Rectangle_352" data-name="Rectangle 352" width="107.291" height="4.235" transform="translate(16.235 7.588)" fill="#fff" opacity="0.3"/>
  <rect id="Rectangle_353" data-name="Rectangle 353" width="53.645" height="4.235" transform="translate(16.235 15.706)" fill="#fff" opacity="0.3"/>
  <circle id="Ellipse_103" data-name="Ellipse 103" cx="6" cy="6" r="6" transform="translate(16.235 26.293)" fill="#fff" opacity="0.3"/>
  <rect id="Rectangle_354" data-name="Rectangle 354" width="107.291" height="4.235" transform="translate(37.411 68.998)" opacity="0.303"/>
  <rect id="Rectangle_355" data-name="Rectangle 355" width="53.645" height="4.235" transform="translate(37.411 77.116)" opacity="0.303"/>
  <circle id="Ellipse_104" data-name="Ellipse 104" cx="6" cy="6" r="6" transform="translate(37.411 87.703)" opacity="0.303"/>
  <rect id="Rectangle_356" data-name="Rectangle 356" width="107.291" height="4.235" transform="translate(16.235 131.114)" fill="#fff" opacity="0.3"/>
  <rect id="Rectangle_357" data-name="Rectangle 357" width="53.645" height="4.235" transform="translate(16.235 139.231)" fill="#fff" opacity="0.3"/>
  <circle id="Ellipse_105" data-name="Ellipse 105" cx="6" cy="6" r="6" transform="translate(16.235 149.819)" fill="#fff" opacity="0.3"/>
</svg>
