<svg xmlns="http://www.w3.org/2000/svg" width="342.026" height="140.083" viewBox="0 0 342.026 140.083"><g transform="translate(-35.974 -3055.506)"><g transform="translate(35.974 3055.506)"><path d="M430.847,517.377v5.577l-65.174.6-.7.013-24.771.227-.592.009-7.529.064h-.223l-45.895.425-75.337.7h-.064l-19.155.18-.206,0-85.115.781v-6.435L126.1,507.509l40.155-.335.858,0,.283,0,.858-.013,19.279-.159.862,0,.275,0,.858,0,6.182-.052.163,0,15.251-.129h.124l119.006-1,2.913-.022h.292l2.222-.021,16.152-.133.858-.013.794-.009h.412l5.024-.039,1-.013,1.334-.009,4.183-.039,6.637-.056.858-.009,1.493-.009h.279l32.051-.275Z" transform="translate(-88.82 -385.874)" fill="#65617d"/><path d="M430.847,517.377v5.577l-65.174.6-.7.013-24.771.227-.592.009-7.529.064h-.223l-45.895.425-75.337.7h-.064l-19.155.18-.206,0-85.115.781v-6.435L126.1,507.509l40.155-.335.858,0,.283,0,.858-.013,19.279-.159.862,0,.275,0,.858,0,6.182-.052.163,0,15.251-.129h.124l119.006-1,2.913-.022h.292l2.222-.021,16.152-.133.858-.013.794-.009h.412l5.024-.039,1-.013,1.334-.009,4.183-.039,6.637-.056.858-.009,1.493-.009h.279l32.051-.275Z" transform="translate(-88.82 -385.874)" opacity="0.2"/><rect width="20.236" height="13.514" transform="translate(263.874 110.052)" fill="#3f3d56"/><rect width="20.236" height="13.514" transform="translate(263.874 110.052)" opacity="0.1"/><rect width="20.236" height="13.514" transform="translate(263.016 110.052)" fill="#3f3d56"/><path d="M699.156,483.65v2.75l-20.236-.541V483.65Z" transform="translate(-415.904 -373.598)" opacity="0.1"/><path d="M753.754,483.015v74.347a1.716,1.716,0,0,1-1.716,1.695h0L669.8,556.868a1.716,1.716,0,0,1-1.652-1.695V483.015a1.716,1.716,0,0,1,1.695-1.695h82.2A1.716,1.716,0,0,1,753.754,483.015Z" transform="translate(-443.791 -446.447)" fill="#65617d"/><path d="M865.406,483.015v74.347a1.716,1.716,0,0,1-1.716,1.695h0V481.32h0a1.716,1.716,0,0,1,1.716,1.695Z" transform="translate(-555.444 -446.447)" opacity="0.1"/><path d="M674.238,319.15H598.09v63.6l76.148,1.716Z" transform="translate(-369.784 -279.749)" fill="#fff"/><path d="M549.276,483.015v72.159a1.716,1.716,0,0,1-1.652,1.695l-82.219,2.188h0a1.716,1.716,0,0,1-1.716-1.695V483.015a1.716,1.716,0,0,1,1.695-1.695h82.2A1.716,1.716,0,0,1,549.276,483.015Z" transform="translate(-327.046 -446.447)" fill="#65617d"/><path d="M430.847,533.65v5.577l-65.174.6-.7.013-24.771.227-.592.009-7.529.064h-.223l-45.895.425-75.337.7h-.064l-19.155.18-.206,0-85.115.781v-6.435l86.878-.571h.206l17.585-.12h.082l121.443-.8h.124l.073,0h.2l2.055-.013h.626l31.957-.214,1.888-.009.42,0Z" transform="translate(-88.82 -402.148)" opacity="0.1"/><g transform="translate(141.466 39.481)"><path d="M194.59,319.15h76.148v63.6l-76.148,1.716Z" transform="translate(-194.59 -319.15)" fill="#341d82"/><path d="M322.443,505.929H279.715a.215.215,0,0,1,0-.429h42.729a.215.215,0,0,1,0,.429Z" transform="translate(-276.252 -499.734)" fill="#f2f2f2"/><path d="M322.443,514.929H279.715a.214.214,0,1,1,0-.429h42.729a.214.214,0,1,1,0,.429Z" transform="translate(-276.252 -504.873)" fill="#f2f2f2"/><path d="M322.443,523.929H279.715a.215.215,0,1,1,0-.429h42.729a.215.215,0,0,1,0,.429Z" transform="translate(-276.252 -510.012)" fill="#f2f2f2"/></g><ellipse cx="22.021" cy="22.021" rx="22.021" ry="22.021" transform="translate(158.772 8.451)" fill="#ffd0d0"/><path d="M566.185,487.244s-42.686,5.148-38.61,0c1.476-1.862,1.883-7.379,1.8-13.664-.026-1.909-.094-3.887-.193-5.856-.472-9.438-1.609-18.662-1.609-18.662s37.323-17.589,33.033-3.647c-1.716,5.633-1.154,13.544.15,20.97.382,2.167.824,4.29,1.287,6.306A147.841,147.841,0,0,0,566.185,487.244Z" transform="translate(-363.367 -422.877)" fill="#fbbebe"/><path d="M504.212,541.993c4.938-.914,10.167-2.574,14.814-.661,1.223.5,2.347,1.236,3.6,1.656s2.625.523,3.93.819c4.582,1.038,8.3,4.526,10.682,8.58s3.621,8.64,4.831,13.179l2.96,11.081c2.574,9.631,5.148,19.344,5.744,29.3a1045.744,1045.744,0,0,1-107.611.614c2.334-4.436,4.719-9.142,4.522-14.157s-3.085-9.961-2.042-14.9c.665-3.149,2.819-5.744,4.136-8.674,3.754-8.374.832-19.644,7.43-26.019,2.969-2.866,7.293-3.951,11.424-3.814,5.268.176,10.661,1.819,15.873,2.621C491.179,542.628,497.485,543.229,504.212,541.993Z" transform="translate(-315.323 -479.372)" fill="#ff6584"/><path d="M552.266,650.525l-.043.613v.043l-.073.987-.571,7.941-.691,9.567-.2,2.694-.429,5.766v.073l-45.9.429-75.329.815v.36h-.06v-.481l.193-6.161.369-12.038.317-10.206.03-1.017a4.517,4.517,0,0,1,4.9-4.363c2.025.172,4.655.382,7.8.6l1.287.094c18.16,1.261,51.721,2.891,85.586.858.712-.039,1.429-.081,2.145-.133,5.251-.33,10.5-.755,15.693-1.287a4.518,4.518,0,0,1,4.976,4.818Z" transform="translate(-307.221 -540.211)" opacity="0.1"/><path d="M429.08,682.114v-.36l75.342-.819,45.9-.429h.129v-.073l.429-5.766.184-2.574.7-9.7.553-7.679v-.189a4.558,4.558,0,0,0-.047-1.06.133.133,0,0,0,0-.043,4.458,4.458,0,0,0-.858-1.991,4.521,4.521,0,0,0-4.041-1.716c-5.2.532-10.442.957-15.693,1.287-.716.051-1.433.094-2.145.133-33.866,2.012-67.427.382-85.586-.858l-1.287-.094c-3.145-.223-5.774-.429-7.8-.6a4.522,4.522,0,0,0-4.822,3.659,4.72,4.72,0,0,0-.077.7l-.292,9.507-.4,12.042-.189,6.161v.48Z" transform="translate(-307.283 -542.512)" fill="#3f3d56"/><path d="M552.475,660.125l-.528,6.577-.785,9.8-.2,2.454-.429,5.5-.026.275v.073h0l-.064.635.047-.635h-.124l-45.9.429-75.355.815v-.12l.21-6.16.429-12.038.275-8a2.728,2.728,0,0,1,1.313-2.252,2.681,2.681,0,0,1,1.622-.386c.9.073,2.008.159,3.3.253,2.1.154,4.685.335,7.7.523,5.577.352,12.574.729,20.592,1.038,22.308.858,52.424,1.146,81.03-1.36,1.287-.112,2.617-.236,3.917-.36a2.686,2.686,0,0,1,1.493.283,2.212,2.212,0,0,1,.369.232,2.634,2.634,0,0,1,.858,1.055,1.533,1.533,0,0,1,.107.262A2.694,2.694,0,0,1,552.475,660.125Z" transform="translate(-307.301 -546.804)" opacity="0.1"/><path d="M758.56,679.87v1.369a2.63,2.63,0,0,0,1.5,2.377l17.2.33a2.625,2.625,0,0,0,1.532-2.39v-1.287Z" transform="translate(-495.415 -559.818)" opacity="0.1"/><path d="M678.72,512.62l22.415.429v-3.719L678.72,508.9Z" transform="translate(-415.789 -388.016)" opacity="0.1"/><path d="M676.72,512.62l22.416.429v-3.719L676.72,508.9Z" transform="translate(-414.647 -388.016)" fill="#3f3d56"/><path d="M513.094,437.251c.034,3-1.356,5.835-2.535,8.61a70.138,70.138,0,0,0-5.431,32.051c.313,4.719,1.107,9.438.313,14.114s-3.617,9.339-8.151,10.682a23.073,23.073,0,0,0,24.779-1.141c3.771-2.746,6.581-6.577,9.331-10.343a41.982,41.982,0,0,1-5.71,19.2,44.372,44.372,0,0,0,31.536-17.512,22.972,22.972,0,0,0,4.17-8.25c1.326-5.577-.523-11.373-1.935-16.946a114.136,114.136,0,0,1-2.647-14.157,12.6,12.6,0,0,1,.043-4.59c.429-1.746,1.574-3.222,2.419-4.813,2.4-4.522,2.458-10,1.227-14.964s-3.642-9.55-6.032-14.076c-1.913-3.629-3.99-7.426-7.49-9.558a22.788,22.788,0,0,0-7.242-2.42l-10.884-2.329a20.106,20.106,0,0,0-7.237-.648c-4.063.635-6.924,3.569-9.438,6.581-1.969,2.342-6.783,6.74-7.122,9.807-.309,2.827,2.188,7.563,2.613,10.545.558,3.861.952,2.574,3.132,4.942A7.619,7.619,0,0,1,513.094,437.251Z" transform="translate(-346.231 -400.031)" fill="#34160b"/><g transform="translate(0 18.269)"><path d="M691.165,389.044l-2,12.788s-9.86,5.238-2.927,5.392,39.6,0,39.6,0,6.317,0-3.7-5.546l-2-13.4Z" transform="translate(-640.246 -299.916)" fill="#3f3d56"/><path d="M684.843,407.085a27.273,27.273,0,0,1,4.322-2.861l2-12.788,28.965.027,2,12.606a26.309,26.309,0,0,1,4.628,3.045c1.286-.293,2.692-1.384-4.628-5.438l-2-13.4-28.965.77-2,12.788S680.88,406.234,684.843,407.085Z" transform="translate(-640.249 -299.916)" opacity="0.1"/><rect width="130.495" height="90.9" rx="10.695" transform="translate(0)" fill="#3f3d56"/><rect width="121.713" height="68.098" transform="translate(4.365 4.86)" fill="#fff"/><ellipse cx="0.77" cy="0.77" rx="0.77" ry="0.77" transform="translate(64.477 1.926)" fill="#f2f2f2"/><path d="M712.819,364.931V372.9a4.588,4.588,0,0,1-4.589,4.588H586.912a4.588,4.588,0,0,1-4.588-4.589v-7.968Z" transform="translate(-582.324 -286.587)" fill="#3f3d56"/><circle cx="2.927" cy="2.927" r="2.927" transform="translate(62.32 81.733)" fill="#f2f2f2"/><path d="M699.574,225.354c-.561-.56-7.753-9.621-8.967-11.116-1.308-1.495-1.868-1.214-2.709-1.121s-9.9,1.681-10.929,1.775c-1.027.187-1.681.56-1.027,1.495.56.841,6.539,9.247,7.846,11.209l-23.819,5.7L641.1,201.628c-.747-1.121-.934-1.495-2.615-1.4s-14.852,1.214-15.786,1.214c-.934.093-1.962.467-1.028,2.709s15.88,34.374,16.253,35.308a3.211,3.211,0,0,0,4.017,1.868c2.615-.654,11.583-2.989,16.533-4.3,2.615,4.67,7.846,14.2,8.874,15.6,1.308,1.868,2.242,1.495,4.2.934,1.588-.467,24.473-8.687,25.5-9.154s1.681-.747.934-1.775c-.56-.747-6.539-8.874-9.714-13.077,2.148-.56,9.9-2.615,10.742-2.9.934-.28,1.121-.747.561-1.308Zm-43.248,8.874c-.28.093-13.638,3.269-14.292,3.456-.747.187-.747.093-.747-.187-.187-.28-15.88-32.786-16.16-33.16-.187-.374-.187-.747,0-.747s12.61-1.121,12.984-1.121c.467,0,.374.093.56.374,0,0,17.467,30.171,17.748,30.638C656.792,233.948,656.605,234.135,656.325,234.228Zm37.55,7.006c.187.374.467.56-.28.747-.654.28-22.511,7.66-22.978,7.846s-.747.28-1.308-.56-7.66-13.077-7.66-13.077l23.259-6.072c.561-.187.747-.28,1.121.28.374.654,7.66,10.555,7.846,10.835Zm1.495-16.44c-.56.093-9.061,2.242-9.061,2.242l-7.006-9.528c-.187-.28-.374-.56.093-.654s8.407-1.495,8.78-1.588.654-.187,1.121.467c.467.56,6.445,8.22,6.725,8.5s-.094.467-.654.56Z" transform="translate(-595.487 -188.061)" fill="#fb503b"/></g><path d="M3.461,24.345a20.888,20.888,0,0,0,11.771,18.8l-9.962-27.3a20.806,20.806,0,0,0-1.808,8.5Zm34.984-1.054a11,11,0,0,0-1.722-5.76c-1.059-1.72-2.051-3.177-2.051-4.9a3.617,3.617,0,0,1,3.507-3.707c.093,0,.18.011.271.017A20.88,20.88,0,0,0,6.9,12.874c.49.015.952.025,1.344.025,2.184,0,5.566-.265,5.566-.265a.863.863,0,0,1,.134,1.72s-1.131.133-2.391.2l7.606,22.622,4.57-13.707-3.254-8.915c-1.125-.066-2.19-.2-2.19-.2a.863.863,0,0,1,.132-1.72s3.449.265,5.5.265c2.184,0,5.566-.265,5.566-.265a.863.863,0,0,1,.134,1.72s-1.134.133-2.391.2L34.772,37l2.083-6.961c.9-2.889,1.59-4.963,1.59-6.752ZM24.712,26.171,18.446,44.38a20.9,20.9,0,0,0,12.835-.333,1.834,1.834,0,0,1-.149-.288ZM42.671,14.325a16.035,16.035,0,0,1,.141,2.147,19.7,19.7,0,0,1-1.588,7.481L34.844,42.4a20.888,20.888,0,0,0,7.827-28.073ZM24.346,0A24.345,24.345,0,1,0,48.692,24.345,24.373,24.373,0,0,0,24.346,0Zm0,47.575a23.229,23.229,0,1,1,23.228-23.23A23.256,23.256,0,0,1,24.346,47.575Z" transform="translate(242.034 47.552)" fill="#464342"/></g></g></svg>